<svg xmlns="http://www.w3.org/2000/svg" xmlns:xlink="http://www.w3.org/1999/xlink" width="116" height="116" viewBox="0 0 116 116">
  <defs>
    <clipPath id="clip-path">
      <rect id="Rectangle_401287" data-name="Rectangle 401287" width="57.126" height="56.878" fill="#fff"/>
    </clipPath>
  </defs>
  <g id="Group_1100532" data-name="Group 1100532" transform="translate(-1165 -4924)">
    <circle id="Ellipse_11529" data-name="Ellipse 11529" cx="58" cy="58" r="58" transform="translate(1165 4924)" fill="#af2323"/>
    <g id="Group_1100359" data-name="Group 1100359" transform="translate(1178 4937)">
      <g id="Group_1073526" data-name="Group 1073526" transform="translate(0 0)">
        <g id="Group_1072785" data-name="Group 1072785" transform="translate(0 0)">
          <path id="Path_608385" data-name="Path 608385" d="M45.092,0A45.092,45.092,0,1,1,0,45.092,45.092,45.092,0,0,1,45.092,0Z" transform="translate(0 0)" fill="none"/>
        </g>
        <g id="Group_1073383" data-name="Group 1073383" transform="translate(0 0)">
          <path id="Path_608385-2" data-name="Path 608385" d="M45.092,0A45.092,45.092,0,1,1,0,45.092,45.092,45.092,0,0,1,45.092,0Z" transform="translate(0 0)" fill="#12405a"/>
        </g>
      </g>
    </g>
    <g id="Group_1100360" data-name="Group 1100360" transform="translate(786.473 -1087.213)">
      <path id="Path_873216" data-name="Path 873216" d="M0,0H57.126V57.127H0Z" transform="translate(408.527 6040.213)" fill="none"/>
      <g id="Group_1100364" data-name="Group 1100364" transform="translate(408.527 6040.213)">
        <g id="Group_1099696" data-name="Group 1099696" clip-path="url(#clip-path)">
          <path id="Path_873895" data-name="Path 873895" d="M29.54,165.875c-.053.108-.1.187-.133.27q-.753,1.8-1.5,3.592a2.024,2.024,0,0,1-1.171,1.209,1.826,1.826,0,0,1-2.141-.689,6.234,6.234,0,0,1-.464-.9c-.084-.179-.166-.209-.351-.107a2.25,2.25,0,0,1-1.6.355,1.925,1.925,0,0,1-1.284-2.761c.594-1.295,1.113-2.624,1.663-3.939.032-.076.055-.154.1-.272-.172,0-.306-.006-.439,0-1.783.084-3.566.16-5.347.258-.8.044-1.589.137-2.384.2-.626.047-1.257.055-1.881.122-1.866.2-3.73.418-5.595.633-.776.089-1.551.18-2.325.282-.5.066-1.006.149-1.508.233a1.351,1.351,0,0,1-1.3-.483,4.842,4.842,0,0,1-.96-1.808,19.463,19.463,0,0,1-.8-4.733c-.077-1.144-.1-2.292-.111-3.439a34.6,34.6,0,0,1,.378-5.64,11.5,11.5,0,0,1,.887-3.225,4.643,4.643,0,0,1,.255-.469,1.718,1.718,0,0,1,2.093-.932c1.2.187,2.4.332,3.607.5.874.122,1.746.261,2.622.37.412.051.833.027,1.245.076,3.132.376,6.278.581,9.427.71,3.593.148,7.19.238,10.786.152,2.694-.064,5.387-.17,8.078-.3,1.832-.091,3.663-.246,5.491-.4,1.047-.088,2.091-.222,3.134-.354,1.676-.212,3.351-.438,5.026-.66.261-.035.521-.075.779-.127a1.461,1.461,0,0,1,1.5.545,5.318,5.318,0,0,1,.951,1.872,16.9,16.9,0,0,1,.715,4.154c.095,1.586.158,3.176.153,4.763A31.256,31.256,0,0,1,56.8,159.4a13.655,13.655,0,0,1-.846,3.37,2.984,2.984,0,0,1-.995,1.36,1.274,1.274,0,0,1-.676.231,9.746,9.746,0,0,1-1.264-.131c-.991-.129-1.981-.271-2.974-.4-1.239-.155-2.477-.315-3.719-.442-1.14-.116-2.285-.19-3.428-.287-.3-.025-.59-.074-.887-.1-.6-.045-1.2-.082-1.8-.117q-1.756-.1-3.513-.2c-.083,0-.167,0-.288,0,.142.353.271.682.407,1.008.459,1.1.929,2.186,1.378,3.285a1.88,1.88,0,0,1-1.639,2.665,2.817,2.817,0,0,1-1.52-.512c-.066.131-.141.257-.194.391a2.335,2.335,0,0,1-.9,1.229,1.837,1.837,0,0,1-2.663-.759c-.492-1.062-.922-2.152-1.377-3.231-.118-.281-.23-.565-.361-.889M55.3,153.987c-.067-1.068-.149-2.119-.2-3.171a18.6,18.6,0,0,0-.807-4.934c-.113-.347-.168-.391-.527-.371-.076,0-.152.012-.228.024-.83.127-1.658.268-2.49.378-1.212.161-2.426.308-3.64.447-1.156.132-2.311.272-3.47.364-1.472.116-2.95.162-4.421.284q-2.824.235-5.654.223c-.225,0-.3.043-.256.288.179,1.026.361,2.052.5,3.085.1.757.133,1.523.176,2.286a.747.747,0,0,0,.195.5,6.194,6.194,0,0,1,1.541,3,6.565,6.565,0,0,1-.421,4.064c-.117.26-.1.293.178.31q.789.05,1.578.093c1.714.1,3.429.178,5.141.289,1.043.068,2.084.166,3.123.274,1.173.122,2.343.27,3.515.408.986.116,1.972.228,2.957.354.581.074,1.159.165,1.737.263a.365.365,0,0,0,.469-.3,7.94,7.94,0,0,0,.246-.881c.188-1.2.394-2.395.519-3.6.127-1.224.166-2.458.242-3.674m-31.737,6.7a.827.827,0,0,0-.029-.107,6.166,6.166,0,0,1,0-5.617,2.481,2.481,0,0,0,.276-1.342c-.011-.118,0-.238,0-.357a21.475,21.475,0,0,0-.735-5.843c-.056-.192-.135-.209-.3-.211-.866-.011-1.733-.022-2.6-.056-1.2-.046-2.393-.112-3.59-.171-.161-.008-.322-.021-.483-.036-.625-.058-1.249-.122-1.875-.175-.373-.032-.747-.038-1.119-.075-1.242-.122-2.485-.238-3.725-.382-1.265-.146-2.526-.322-3.789-.484-.264-.034-.53-.062-.816-.095a1.246,1.246,0,0,0,.019.176,17.463,17.463,0,0,1,.746,4.222c.055.975.164,1.951.158,2.926-.009,1.571-.076,3.142-.151,4.711a16.228,16.228,0,0,1-.748,4.247,1.089,1.089,0,0,0-.012.208,170.314,170.314,0,0,1,18.769-1.541m6.078,1.83a4.738,4.738,0,1,0-4.883-4.354,4.711,4.711,0,0,0,4.883,4.354m-3.932-10.146a6.486,6.486,0,0,1,6.617-.589,18.87,18.87,0,0,0-.7-4.458H24.977a28.866,28.866,0,0,1,.728,5.047m-22.9,9.474h.121a31.106,31.106,0,0,0,.921-9.111,25.119,25.119,0,0,0-.98-6.657,13.616,13.616,0,0,0-.747,3.395,33.326,33.326,0,0,0,.481,11.672c.054.237.135.467.2.7m31.451.534a5.781,5.781,0,0,1-1.872,1.352c-.409.18-.839.315-1.262.462-.19.066-.248.152-.157.355.234.517.447,1.043.669,1.566q.592,1.391,1.189,2.781a1.189,1.189,0,0,0,.161.224c.21-.479.4-.929.6-1.376a.976.976,0,0,1,1.483-.563c.062.028.123.058.185.084l1.267.537-2.268-5.421m-6.074,1.882a6.9,6.9,0,0,1-3.407-1.85L22.52,167.8a2.255,2.255,0,0,0,.222-.067c.441-.2.883-.392,1.322-.595a.913.913,0,0,1,1.307.433c.147.276.264.568.389.855.107.246.207.5.337.807l2.089-4.977" transform="translate(0 -114.179)" fill="#fff"/>
          <path id="Path_873896" data-name="Path 873896" d="M45.791,16.731l-2.855,1v.276c0,1.811-.007,3.621,0,5.432a1.939,1.939,0,0,1-.7,1.546,6.5,6.5,0,0,1-2.518,1.233,32.675,32.675,0,0,1-6.189,1.039,57.976,57.976,0,0,1-6.649.178,38.551,38.551,0,0,1-5.255-.422c-.746-.115-1.5-.183-2.239-.341A12.883,12.883,0,0,1,15.8,25.5a4.886,4.886,0,0,1-.63-.429,2.05,2.05,0,0,1-.809-1.752c.018-1.768.006-3.536.006-5.3v-.284L9.2,15.9,2.014,13.334c-.247-.088-.5-.16-.74-.272A1.824,1.824,0,0,1,.1,11.356,1.787,1.787,0,0,1,1.316,9.6C2.248,9.24,3.2,8.923,4.141,8.589c1.607-.568,3.216-1.129,4.821-1.7q5.117-1.824,10.23-3.655Q22.607,2.015,26.025.806C26.6.6,27.177.4,27.744.175a2.457,2.457,0,0,1,1.81,0q5.687,2.042,11.383,4.06Q44.5,5.5,48.06,6.759q3.8,1.35,7.6,2.7a2.116,2.116,0,0,1,1.383,1.151,1.81,1.81,0,0,1-.918,2.4c-.61.273-1.252.475-1.882.7-.982.353-1.966.7-2.949,1.049-.039.014-.076.035-.128.06a2.833,2.833,0,0,1,.345,1.6c0,.791-.03,1.582.005,2.371a2,2,0,0,1-2.025,2.03c-.619-.031-1.241,0-1.861-.016a1.943,1.943,0,0,1-1.835-1.9c0-.713,0-1.427,0-2.179m-31.426-.962c0-.818,0-1.583,0-2.347a1.793,1.793,0,0,1,.569-1.372,5.281,5.281,0,0,1,.838-.616,10.323,10.323,0,0,1,2.835-1.027c.78-.2,1.579-.327,2.375-.451a52.2,52.2,0,0,1,6.859-.5c1.332-.029,2.669.028,4,.1s2.683.157,4.009.345c1.29.183,2.569.47,3.836.778a6.479,6.479,0,0,1,2.37,1.087,2.041,2.041,0,0,1,.88,1.746c-.008.654,0,1.309,0,1.964v.3c.168-.063.292-.113.418-.158.871-.308,1.745-.61,2.613-.927a.951.951,0,0,0,.386-.258,3,3,0,0,1,1.117-.906.327.327,0,0,0,.237-.373q-.008-2.142.016-4.283a.312.312,0,0,0-.238-.355c-.936-.329-1.869-.666-2.8-1q-2.935-1.047-5.871-2.093-5-1.778-10-3.549a.462.462,0,0,0-.286,0q-3.6,1.276-7.19,2.562c-2.149.765-4.3,1.522-6.451,2.287q-3.643,1.3-7.284,2.6c-1.726.614-3.455,1.218-5.182,1.83-.131.046-.256.112-.45.2l12.4,4.411m26.724,5.837v-.224c0-2.516-.017-5.032,0-7.548a.782.782,0,0,0-.5-.856c-.055-.023-.106-.056-.162-.073-.859-.26-1.706-.576-2.581-.762a31.71,31.71,0,0,0-3.442-.543c-1.377-.136-2.763-.191-4.146-.244a49.772,49.772,0,0,0-7.86.339c-1.019.122-2.034.281-3.043.466a10.774,10.774,0,0,0-2.622.8.821.821,0,0,0-.53.866c.022,2.508.009,5.015.008,7.523v.3a18.274,18.274,0,0,1,4.8-1.249,29.887,29.887,0,0,1,3.014-.3c1.662-.1,3.328-.208,4.991-.2,1.783.011,3.566.13,5.346.253a23.677,23.677,0,0,1,2.567.371q1.3.236,2.584.559c.53.133,1.042.344,1.575.524m-.117,2.133-.02-.1a5.568,5.568,0,0,0-2.037-.815c-1.055-.247-2.126-.44-3.2-.582-1.312-.174-2.632-.32-3.953-.388-1.45-.075-2.906-.059-4.359-.059-.773,0-1.548.016-2.317.083-1.31.115-2.617.273-3.925.417a16.069,16.069,0,0,0-4.239,1.023,5.2,5.2,0,0,0-.584.323c0,.037,0,.073-.006.11.415.18.819.392,1.246.535a20.179,20.179,0,0,0,3.88.81c1,.127,2,.306,3.006.35a72.2,72.2,0,0,0,7.339.036c.4-.023.8,0,1.2-.038,1.07-.116,2.138-.253,3.205-.391a18.465,18.465,0,0,0,3.693-.826c.37-.128.717-.323,1.074-.487M49.622,13.4l5.629-2.011-.011-.1-5.618-2Zm-.008,5.531a1.463,1.463,0,0,0,.032-.2c.006-.789.014-1.578.008-2.367a2,2,0,0,0-.083-.525.891.891,0,0,0-1.11-.68.858.858,0,0,0-.774.917c-.012.891-.007,1.782,0,2.672a.249.249,0,0,0,.168.176c.576.013,1.153.008,1.754.008" transform="translate(-0.082 -0.001)" fill="#fff"/>
        </g>
      </g>
    </g>
  </g>
</svg>
