<svg xmlns="http://www.w3.org/2000/svg" xmlns:xlink="http://www.w3.org/1999/xlink" width="139" height="139" viewBox="0 0 139 139">
  <defs>
    <clipPath id="clip-path">
      <rect id="Rectangle_400938" data-name="Rectangle 400938" width="139" height="139" transform="translate(0 0)" fill="none"/>
    </clipPath>
    <clipPath id="clip-path-2">
      <path id="Path_615713" data-name="Path 615713" d="M39.432,5.414C19.942,12.637,5,30.148,1.309,50.435A65.95,65.95,0,0,0,0,63.479,66.849,66.849,0,0,0,53.626,129a57.04,57.04,0,0,0,13.009,1.166c16.527-1.869,26.618-17.7,25.53-33.825-.89-16.127-1.484-35.122,13.43-44.847,3.8-3.32,7.228-6.021,10.1-8.385,8.225-5.24,11.49-17.211,4.367-24.335C107.216,5.8,88.72,0,70.18,0A89.784,89.784,0,0,0,39.432,5.414" fill="none"/>
    </clipPath>
    <clipPath id="clip-path-3">
      <rect id="Rectangle_378821" data-name="Rectangle 378821" width="139.916" height="139.916" fill="#0d599b"/>
    </clipPath>
    <clipPath id="clip-path-4">
      <path id="Path_615689" data-name="Path 615689" d="M77.285,76.984.3,0Q.1,1.91,0,3.827L73.461,77.285q1.912-.095,3.824-.3" fill="#0d599b"/>
    </clipPath>
    <clipPath id="clip-path-5">
      <path id="Path_615690" data-name="Path 615690" d="M9.922,12.462a69.954,69.954,0,0,0,12.461,9.921L0,0A70.129,70.129,0,0,0,9.922,12.462" fill="#0d599b"/>
    </clipPath>
    <clipPath id="clip-path-6">
      <path id="Path_615691" data-name="Path 615691" d="M.92,5.045,54.174,58.3q2.5.547,5.04.915L0,0C.247,1.69.548,3.372.92,5.045" fill="#0d599b"/>
    </clipPath>
    <clipPath id="clip-path-7">
      <path id="Path_615692" data-name="Path 615692" d="M2.442,6.572,39.005,43.135a69.255,69.255,0,0,0,6.571,2.441L0,0A68.993,68.993,0,0,0,2.442,6.572" fill="#0d599b"/>
    </clipPath>
    <clipPath id="clip-path-8">
      <path id="Path_615693" data-name="Path 615693" d="M.173,4.3,64.9,69.022c1.433.1,2.866.159,4.3.175L0,0Q.02,2.15.173,4.3" fill="#0d599b"/>
    </clipPath>
    <clipPath id="clip-path-9">
      <path id="Path_615694" data-name="Path 615694" d="M89.074,85.889,3.185,0C2.117.29,1.054.6,0,.945L88.131,89.075q.507-1.587.943-3.187" fill="#0d599b"/>
    </clipPath>
    <clipPath id="clip-path-10">
      <path id="Path_615695" data-name="Path 615695" d="M83.842,80.37,3.475,0C2.312.193,1.152.408,0,.657L83.186,83.846c.249-1.157.466-2.312.656-3.476" fill="#0d599b"/>
    </clipPath>
    <clipPath id="clip-path-11">
      <path id="Path_615696" data-name="Path 615696" d="M77.29,73.463,3.827,0C2.55.065,1.274.17,0,.3L76.987,77.288c.135-1.27.237-2.55.3-3.825" fill="#0d599b"/>
    </clipPath>
    <clipPath id="clip-path-12">
      <path id="Path_615697" data-name="Path 615697" d="M93.2,90.263,2.935,0Q1.456.563,0,1.188L92.008,93.2q.628-1.457,1.191-2.935" fill="#0d599b"/>
    </clipPath>
    <clipPath id="clip-path-13">
      <path id="Path_615698" data-name="Path 615698" d="M96.363,93.642,2.719,0Q1.345.673,0,1.413L94.951,96.364c.491-.9.962-1.8,1.412-2.722" fill="#0d599b"/>
    </clipPath>
    <clipPath id="clip-path-14">
      <path id="Path_615699" data-name="Path 615699" d="M69.025,64.9,4.3.174Q2.151.022,0,0L69.2,69.2c-.016-1.436-.072-2.872-.175-4.3" fill="#0d599b"/>
    </clipPath>
    <clipPath id="clip-path-15">
      <path id="Path_615700" data-name="Path 615700" d="M43.134,39,6.577,2.443Q3.341,1.054,0,0L45.579,45.576A69.054,69.054,0,0,0,43.134,39" fill="#0d599b"/>
    </clipPath>
    <clipPath id="clip-path-16">
      <path id="Path_615701" data-name="Path 615701" d="M83.839,83.185.652,0Q.282,1.726,0,3.472L80.369,83.839q1.742-.285,3.47-.654" fill="#0d599b"/>
    </clipPath>
    <clipPath id="clip-path-17">
      <path id="Path_615702" data-name="Path 615702" d="M12.462,9.923A70.309,70.309,0,0,0,0,0L22.385,22.388A70.1,70.1,0,0,0,12.462,9.923" fill="#0d599b"/>
    </clipPath>
    <clipPath id="clip-path-18">
      <path id="Path_615703" data-name="Path 615703" d="M58.3,54.173,5.043.92C3.372.548,1.689.247,0,0L59.217,59.214c-.247-1.687-.551-3.372-.92-5.041" fill="#0d599b"/>
    </clipPath>
    <clipPath id="clip-path-19">
      <path id="Path_615704" data-name="Path 615704" d="M98.661,96.138,2.522,0C1.672.516.829,1.051,0,1.605L97.052,98.66q.834-1.25,1.609-2.522" fill="#0d599b"/>
    </clipPath>
    <clipPath id="clip-path-20">
      <path id="Path_615705" data-name="Path 615705" d="M98.659,97.051,1.608,0Q.774,1.243,0,2.518l96.142,96.14c.845-.514,1.687-1.053,2.518-1.608" fill="#0d599b"/>
    </clipPath>
    <clipPath id="clip-path-21">
      <path id="Path_615706" data-name="Path 615706" d="M96.365,94.951,1.413,0Q.676,1.345,0,2.722L93.643,96.364c.915-.448,1.822-.922,2.721-1.413" fill="#0d599b"/>
    </clipPath>
    <clipPath id="clip-path-22">
      <path id="Path_615707" data-name="Path 615707" d="M93.2,92.007,1.191,0C.771.972.371,1.954,0,2.942L90.26,93.2q1.481-.563,2.941-1.2" fill="#0d599b"/>
    </clipPath>
    <clipPath id="clip-path-23">
      <path id="Path_615708" data-name="Path 615708" d="M89.082,88.134.945,0Q.436,1.586,0,3.188L85.89,89.077c1.07-.29,2.13-.6,3.191-.943" fill="#0d599b"/>
    </clipPath>
    <clipPath id="clip-path-24">
      <path id="Path_615709" data-name="Path 615709" d="M100.158,98.364,1.8,0C1.18.77.578,1.544,0,2.332l97.832,97.829c.785-.58,1.558-1.182,2.326-1.8" fill="#0d599b"/>
    </clipPath>
    <clipPath id="clip-path-25">
      <path id="Path_615710" data-name="Path 615710" d="M100.893,98.74,2.154,0Q1.059.962,0,1.973l98.92,98.921q1.014-1.064,1.973-2.154" fill="#0d599b"/>
    </clipPath>
    <clipPath id="clip-path-26">
      <path id="Path_615711" data-name="Path 615711" d="M100.9,98.917,1.974,0Q.961,1.06,0,2.152l98.741,98.742q1.092-.962,2.155-1.977" fill="#0d599b"/>
    </clipPath>
    <clipPath id="clip-path-27">
      <path id="Path_615712" data-name="Path 615712" d="M100.16,97.832,2.332,0C1.543.58.77,1.182,0,1.8l98.36,98.362c.618-.766,1.221-1.545,1.8-2.33" fill="#0d599b"/>
    </clipPath>
    <clipPath id="clip-path-28">
      <rect id="Rectangle_401337" data-name="Rectangle 401337" width="72.023" height="71.792" fill="#124877"/>
    </clipPath>
  </defs>
  <g id="Group_1100536" data-name="Group 1100536" transform="translate(-1153 -8608.563)">
    <g id="Group_1099788" data-name="Group 1099788" transform="translate(835 2214.563)">
      <g id="Mask_Group_1098657" data-name="Mask Group 1098657" transform="translate(318 6394)" clip-path="url(#clip-path)">
        <g id="Group_1098881" data-name="Group 1098881" transform="translate(4.408 128.492) rotate(-90)">
          <g id="Group_1074821" data-name="Group 1074821" transform="translate(0 0)" clip-path="url(#clip-path-2)">
            <g id="Group_1074820" data-name="Group 1074820" transform="translate(-4.97 -9.729)" opacity="0.5">
              <g id="Group_1074819" data-name="Group 1074819">
                <g id="Group_1074818" data-name="Group 1074818" clip-path="url(#clip-path-3)">
                  <g id="Group_1074771" data-name="Group 1074771" transform="translate(0.085 62.545)">
                    <g id="Group_1074770" data-name="Group 1074770" clip-path="url(#clip-path-4)">
                      <rect id="Rectangle_378797" data-name="Rectangle 378797" width="109.298" height="109.298" transform="translate(-38.643 38.643) rotate(-45)" fill="#0d599b"/>
                    </g>
                  </g>
                  <g id="Group_1074773" data-name="Group 1074773" transform="translate(10.563 106.969)">
                    <g id="Group_1074772" data-name="Group 1074772" clip-path="url(#clip-path-5)">
                      <rect id="Rectangle_378798" data-name="Rectangle 378798" width="31.655" height="31.655" transform="translate(-11.191 11.191) rotate(-45)" fill="#0d599b"/>
                    </g>
                  </g>
                  <g id="Group_1074775" data-name="Group 1074775" transform="translate(0.709 79.991)">
                    <g id="Group_1074774" data-name="Group 1074774" clip-path="url(#clip-path-6)">
                      <rect id="Rectangle_378799" data-name="Rectangle 378799" width="83.743" height="83.743" transform="translate(-29.608 29.608) rotate(-45)" fill="#0d599b"/>
                    </g>
                  </g>
                  <g id="Group_1074777" data-name="Group 1074777" transform="translate(3.249 91.09)">
                    <g id="Group_1074776" data-name="Group 1074776" clip-path="url(#clip-path-7)">
                      <rect id="Rectangle_378800" data-name="Rectangle 378800" width="64.455" height="64.455" transform="translate(-22.788 22.788) rotate(-45)" fill="#0d599b"/>
                    </g>
                  </g>
                  <g id="Group_1074779" data-name="Group 1074779" transform="translate(0 70.72)">
                    <g id="Group_1074778" data-name="Group 1074778" clip-path="url(#clip-path-8)">
                      <rect id="Rectangle_378801" data-name="Rectangle 378801" width="97.856" height="97.856" transform="translate(-34.598 34.598) rotate(-45)" fill="#0d599b"/>
                    </g>
                  </g>
                  <g id="Group_1074781" data-name="Group 1074781" transform="translate(48.408 2.434)">
                    <g id="Group_1074780" data-name="Group 1074780" clip-path="url(#clip-path-9)">
                      <rect id="Rectangle_378802" data-name="Rectangle 378802" width="125.97" height="125.97" transform="translate(-44.538 44.538) rotate(-45)" fill="#0d599b"/>
                    </g>
                  </g>
                  <g id="Group_1074783" data-name="Group 1074783" transform="translate(55.161 0.912)">
                    <g id="Group_1074782" data-name="Group 1074782" clip-path="url(#clip-path-10)">
                      <rect id="Rectangle_378803" data-name="Rectangle 378803" width="118.573" height="118.573" transform="translate(-41.923 41.923) rotate(-45)" fill="#0d599b"/>
                    </g>
                  </g>
                  <g id="Group_1074785" data-name="Group 1074785" transform="translate(62.541 0.086)">
                    <g id="Group_1074784" data-name="Group 1074784" clip-path="url(#clip-path-11)">
                      <rect id="Rectangle_378804" data-name="Rectangle 378804" width="109.303" height="109.303" transform="translate(-38.644 38.644) rotate(-45)" fill="#0d599b"/>
                    </g>
                  </g>
                  <g id="Group_1074787" data-name="Group 1074787" transform="translate(42.188 4.529)">
                    <g id="Group_1074786" data-name="Group 1074786" clip-path="url(#clip-path-12)">
                      <rect id="Rectangle_378805" data-name="Rectangle 378805" width="131.803" height="131.803" transform="translate(-46.599 46.599) rotate(-45)" fill="#0d599b"/>
                    </g>
                  </g>
                  <g id="Group_1074789" data-name="Group 1074789" transform="translate(36.434 7.12)">
                    <g id="Group_1074788" data-name="Group 1074788" clip-path="url(#clip-path-13)">
                      <rect id="Rectangle_378806" data-name="Rectangle 378806" width="136.278" height="136.278" transform="translate(-48.182 48.182) rotate(-45)" fill="#0d599b"/>
                    </g>
                  </g>
                  <g id="Group_1074791" data-name="Group 1074791" transform="translate(70.716 0)">
                    <g id="Group_1074790" data-name="Group 1074790" clip-path="url(#clip-path-14)">
                      <rect id="Rectangle_378807" data-name="Rectangle 378807" width="97.864" height="97.864" transform="translate(-34.6 34.6) rotate(-45)" fill="#0d599b"/>
                    </g>
                  </g>
                  <g id="Group_1074793" data-name="Group 1074793" transform="translate(91.089 3.249)">
                    <g id="Group_1074792" data-name="Group 1074792" clip-path="url(#clip-path-15)">
                      <rect id="Rectangle_378808" data-name="Rectangle 378808" width="64.456" height="64.456" transform="translate(-22.788 22.788) rotate(-45)" fill="#0d599b"/>
                    </g>
                  </g>
                  <g id="Group_1074795" data-name="Group 1074795" transform="translate(0.913 55.165)">
                    <g id="Group_1074794" data-name="Group 1074794" clip-path="url(#clip-path-16)">
                      <rect id="Rectangle_378809" data-name="Rectangle 378809" width="118.566" height="118.566" transform="translate(-41.919 41.919) rotate(-45)" fill="#0d599b"/>
                    </g>
                  </g>
                  <g id="Group_1074797" data-name="Group 1074797" transform="translate(106.968 10.562)">
                    <g id="Group_1074796" data-name="Group 1074796" clip-path="url(#clip-path-17)">
                      <rect id="Rectangle_378810" data-name="Rectangle 378810" width="31.659" height="31.659" transform="translate(-11.194 11.194) rotate(-45)" fill="#0d599b"/>
                    </g>
                  </g>
                  <g id="Group_1074799" data-name="Group 1074799" transform="translate(79.99 0.711)">
                    <g id="Group_1074798" data-name="Group 1074798" clip-path="url(#clip-path-18)">
                      <rect id="Rectangle_378811" data-name="Rectangle 378811" width="83.743" height="83.743" transform="translate(-29.607 29.607) rotate(-45)" fill="#0d599b"/>
                    </g>
                  </g>
                  <g id="Group_1074801" data-name="Group 1074801" transform="translate(31.102 10.154)">
                    <g id="Group_1074800" data-name="Group 1074800" clip-path="url(#clip-path-19)">
                      <rect id="Rectangle_378812" data-name="Rectangle 378812" width="139.527" height="139.527" transform="translate(-49.33 49.33) rotate(-45)" fill="#0d599b"/>
                    </g>
                  </g>
                  <g id="Group_1074803" data-name="Group 1074803" transform="translate(10.152 31.103)">
                    <g id="Group_1074802" data-name="Group 1074802" clip-path="url(#clip-path-20)">
                      <rect id="Rectangle_378813" data-name="Rectangle 378813" width="139.525" height="139.525" transform="translate(-49.329 49.329) rotate(-45)" fill="#0d599b"/>
                    </g>
                  </g>
                  <g id="Group_1074805" data-name="Group 1074805" transform="translate(7.118 36.434)">
                    <g id="Group_1074804" data-name="Group 1074804" clip-path="url(#clip-path-21)">
                      <rect id="Rectangle_378814" data-name="Rectangle 378814" width="136.28" height="136.28" transform="translate(-48.182 48.182) rotate(-45)" fill="#0d599b"/>
                    </g>
                  </g>
                  <g id="Group_1074807" data-name="Group 1074807" transform="translate(4.529 42.186)">
                    <g id="Group_1074806" data-name="Group 1074806" clip-path="url(#clip-path-22)">
                      <rect id="Rectangle_378815" data-name="Rectangle 378815" width="131.808" height="131.808" transform="translate(-46.601 46.601) rotate(-45)" fill="#0d599b"/>
                    </g>
                  </g>
                  <g id="Group_1074809" data-name="Group 1074809" transform="translate(2.431 48.405)">
                    <g id="Group_1074808" data-name="Group 1074808" clip-path="url(#clip-path-23)">
                      <rect id="Rectangle_378816" data-name="Rectangle 378816" width="125.977" height="125.977" transform="translate(-44.538 44.538) rotate(-45)" fill="#0d599b"/>
                    </g>
                  </g>
                  <g id="Group_1074811" data-name="Group 1074811" transform="translate(13.59 26.165)">
                    <g id="Group_1074810" data-name="Group 1074810" clip-path="url(#clip-path-24)">
                      <rect id="Rectangle_378817" data-name="Rectangle 378817" width="141.647" height="141.647" transform="translate(-50.081 50.081) rotate(-45)" fill="#0d599b"/>
                    </g>
                  </g>
                  <g id="Group_1074813" data-name="Group 1074813" transform="translate(21.606 17.416)">
                    <g id="Group_1074812" data-name="Group 1074812" clip-path="url(#clip-path-25)">
                      <rect id="Rectangle_378818" data-name="Rectangle 378818" width="142.685" height="142.685" transform="translate(-50.447 50.447) rotate(-45)" fill="#0d599b"/>
                    </g>
                  </g>
                  <g id="Group_1074815" data-name="Group 1074815" transform="translate(17.415 21.608)">
                    <g id="Group_1074814" data-name="Group 1074814" clip-path="url(#clip-path-26)">
                      <rect id="Rectangle_378819" data-name="Rectangle 378819" width="142.686" height="142.686" transform="translate(-50.447 50.447) rotate(-45)" fill="#0d599b"/>
                    </g>
                  </g>
                  <g id="Group_1074817" data-name="Group 1074817" transform="translate(26.166 13.587)">
                    <g id="Group_1074816" data-name="Group 1074816" clip-path="url(#clip-path-27)">
                      <rect id="Rectangle_378820" data-name="Rectangle 378820" width="141.649" height="141.649" transform="translate(-50.081 50.081) rotate(-45)" fill="#0d599b"/>
                    </g>
                  </g>
                </g>
              </g>
            </g>
          </g>
        </g>
      </g>
      <ellipse id="Ellipse_11492" data-name="Ellipse 11492" cx="35.5" cy="37" rx="35.5" ry="37" transform="translate(348 6444)" fill="#e3f1fd" opacity="0.81"/>
      <path id="Union_5" data-name="Union 5" d="M87.484,118.213a14.655,14.655,0,0,1-5.983-3.542,48.98,48.98,0,0,1-5.1-5.829C69.986,99.286,61.522,90.5,48.639,87.528c-8.369-1.911-16.183-1.41-24.385-1.908-8.4-.52-16.937-3.843-20.642-11.049A28.172,28.172,0,0,1,.53,67.089c-.072-.279-.14-.56-.205-.845A55.665,55.665,0,0,1,.343,54.071,57.006,57.006,0,0,1,3.124,41.78C10.161,21.37,27.794,6.6,48.843.88,78.512-3.485,96.126,9.669,100.1,12.315a88.853,88.853,0,0,1,11.111,8.707A65.621,65.621,0,0,1,128.621,70.71c-.735,13.015-5.567,22.989-12.064,33.755-5.175,6.938-13.912,13.432-22.623,14.288q-.941.093-1.88.094A16.192,16.192,0,0,1,87.484,118.213Z" transform="translate(320.893 6407.153)" fill="#fff" stroke="rgba(0,0,0,0)" stroke-miterlimit="10" stroke-width="1" opacity="0.95"/>
    </g>
    <g id="Group_1099791" data-name="Group 1099791" transform="translate(775.65 2601.027)">
      <path id="Path_873216" data-name="Path 873216" d="M0,0H73.645V73.647H0Z" transform="translate(408.527 6040.213)" fill="none"/>
      <g id="Group_1099797" data-name="Group 1099797" transform="translate(409.149 6040.978)">
        <g id="Group_1099796" data-name="Group 1099796" clip-path="url(#clip-path-28)">
          <path id="Path_873978" data-name="Path 873978" d="M42.951,47.521c-.7.51-1.383.967-2.017,1.491a3.15,3.15,0,0,0-1.2,2.557c.015,1.737.013,3.473.017,5.21a2.9,2.9,0,0,1-.026.481c-.147.889-.549,1.274-1.607,1.4a1.457,1.457,0,0,0-1.331,1.417,1.358,1.358,0,0,1-1.4,1.422q-2.428,0-4.855,0a1.314,1.314,0,0,1-1.474-1.371,1.466,1.466,0,0,0-1.437-1.464,1.594,1.594,0,0,1-1.558-1.772c-.006-1.694-.041-3.389.018-5.081a3.381,3.381,0,0,0-1.541-3.064,17.776,17.776,0,0,1-2.736-2.28,15.247,15.247,0,0,1-3.959-7.583,13.87,13.87,0,0,1-.222-4.694,15.35,15.35,0,0,1,6.723-10.966,14.642,14.642,0,0,1,4.808-2.149,14.32,14.32,0,0,1,4.547-.486,15.36,15.36,0,0,1,10.352,4.8,14.962,14.962,0,0,1,3.82,7.059,14.093,14.093,0,0,1,.3,5.391,15.324,15.324,0,0,1-1.093,3.948c-.26.579-.251.583.32.868,1.656.827,3.3,1.677,4.972,2.471a7.418,7.418,0,0,1,2.022,1.559q1.868,1.861,3.729,3.729c.11.11.2.236.307.354l.112-.05v-.657q0-22.4,0-44.8c0-.354.006-.708-.005-1.061a1.284,1.284,0,0,0-1.4-1.364Q48.063,2.838,39,2.83a2.985,2.985,0,0,1-1-.187,1.377,1.377,0,0,1-.848-1.349A1.407,1.407,0,0,1,38.271.08,4,4,0,0,1,39,.009C44.91.005,50.816.015,56.722,0a4.37,4.37,0,0,1,3.671,1.63,3.845,3.845,0,0,1,.9,2.326c.026,1.082.019,2.165.017,3.247,0,.392-.013.379.389.371.793-.015,1.587-.042,2.379-.012A4.054,4.054,0,0,1,68.042,11.1a9.065,9.065,0,0,1,.082,1.345q.013,3.489.006,6.979a4.685,4.685,0,0,1-.893,2.861.351.351,0,0,0,.009.325,4.588,4.588,0,0,1,.867,2.772c0,2.616.011,5.231-.008,7.847a4.1,4.1,0,0,1-.837,2.453.3.3,0,0,0-.008.425,4.459,4.459,0,0,1,.856,2.709c0,2.637.021,5.274-.016,7.911a4.084,4.084,0,0,1-3.161,3.928,2.038,2.038,0,0,1-.414.04c-.943,0-1.886,0-2.83,0h-.372c-.007.125-.017.218-.017.31,0,.772-.01,1.543.01,2.315a.755.755,0,0,0,.191.473c2.7,2.692,5.425,5.367,8.125,8.063a11.222,11.222,0,0,1,1.487,1.724,5.271,5.271,0,0,1-3.5,8.1,5.118,5.118,0,0,1-4.457-1.288c-.654-.582-1.226-1.255-1.876-1.93-.073.15-.108.208-.131.271A4.3,4.3,0,0,1,57,71.789c-.1,0-.193,0-.29,0H9.248a4.752,4.752,0,0,1-2.869-.759,4.3,4.3,0,0,1-1.864-3.717c0-1.017,0-2.034,0-3.085A4.4,4.4,0,0,1,.735,62.307a3.851,3.851,0,0,1-.716-2.455A4.281,4.281,0,0,1,4.5,55.817V48.153a4.331,4.331,0,0,1-3.71-1.862,3.881,3.881,0,0,1-.774-2.6A4.281,4.281,0,0,1,1.462,40.81,4.715,4.715,0,0,1,4.5,39.719V32.1c-.44-.068-.886-.116-1.322-.21a4.173,4.173,0,0,1,1.005-8.222c.287-.01.346-.074.344-.36-.016-2.3-.011-4.61-.011-6.915v-.4c-.293-.03-.567-.055-.839-.086A4.286,4.286,0,0,1,.057,12.339,4.253,4.253,0,0,1,4.162,7.6c.309-.013.364-.1.364-.386,0-1.157-.04-2.319.049-3.47A4.165,4.165,0,0,1,8.2.074,10.988,10.988,0,0,1,9.383.009Q18.146,0,26.908.009a3.885,3.885,0,0,1,.7.069,1.315,1.315,0,0,1,1.064,1.111A1.305,1.305,0,0,1,28.1,2.5a2.04,2.04,0,0,1-1.249.341q-8.988,0-17.975,0A1.378,1.378,0,0,0,7.292,4.379c-.018.986,0,1.972-.014,2.958,0,.243.126.242.3.252a4.18,4.18,0,0,1,3.836,2.519,5.223,5.223,0,0,1,.38,1.613,1.346,1.346,0,0,1-1.158,1.4,1.306,1.306,0,0,1-1.57-1.069c-.021-.105-.044-.21-.057-.316a1.453,1.453,0,0,0-1.33-1.417c-.34-.068-.4-.025-.4.322Q7.3,16.27,7.309,21.9c0,.471,0,.944-.027,1.414-.017.271.072.34.337.357a4.167,4.167,0,0,1,3.85,2.64,4.569,4.569,0,0,1,.308,1.465,1.362,1.362,0,0,1-2.709.268c-.021-.116-.044-.231-.063-.347a1.4,1.4,0,0,0-1.676-1.228c-.007.086-.022.179-.022.271q0,5.853,0,11.707c0,.321,0,.645-.033.964-.024.255.063.333.316.345a4.267,4.267,0,0,1,3.129,1.414,4.143,4.143,0,0,1,1.071,2.656,1.354,1.354,0,0,1-.909,1.405,1.281,1.281,0,0,1-1.55-.43,2.154,2.154,0,0,1-.314-.921,1.436,1.436,0,0,0-1.542-1.4.256.256,0,0,0-.18.157,1.29,1.29,0,0,0-.014.351q0,6.319,0,12.639c0,.052.007.1.013.192.131.006.254.02.378.018A4.206,4.206,0,0,1,11.7,59.215a3.361,3.361,0,0,1,.038,1.112,1.411,1.411,0,0,1-1.281,1.09,1.488,1.488,0,0,1-1.341-.98,2.389,2.389,0,0,1-.108-.467c-.135-1.017-.642-1.406-1.712-1.27,0,.1-.015.2-.015.3q.013,4.132.03,8.265a2.62,2.62,0,0,0,.069.7,1.3,1.3,0,0,0,1.394.994H56.459c.257,0,.514,0,.771,0a1.258,1.258,0,0,0,1.295-1.239c.023-.567.028-1.136.018-1.7a.576.576,0,0,0-.17-.352Q52.3,59.6,46.217,53.542a4.971,4.971,0,0,1-.943-1.365c-.765-1.555-1.547-3.1-2.324-4.656M32.883,49.485v-.008h4.18c.151,0,.279.009.356-.182a6.556,6.556,0,0,1,2.343-2.833c.544-.4,1.064-.831,1.611-1.224.256-.184.263-.353.126-.616q-.735-1.409-1.435-2.835A1.336,1.336,0,0,1,40.9,39.84a1.44,1.44,0,0,1,1.14.158q1.057.5,2.1,1.037c.2.1.312.086.375-.146.051-.185.13-.362.191-.544a12.867,12.867,0,0,0,.639-6.479,12.34,12.34,0,0,0-6.631-9.108,11.632,11.632,0,0,0-4.528-1.311,12.729,12.729,0,0,0-5.17.516,12.567,12.567,0,0,0-6.268,19.383A13.542,13.542,0,0,0,26.1,46.5a6.474,6.474,0,0,1,2.323,2.812.367.367,0,0,0,.28.164c1.393.011,2.786.007,4.18.007m32.6,12.272L52.532,48.716l-3.569,3.492,12.93,13.169,3.595-3.62M28.832,52.238c0,1.234-.005,2.422.01,3.609a.411.411,0,0,0,.218.3,4.4,4.4,0,0,1,2.406,2.374.3.3,0,0,0,.327.224c.728-.02,1.457-.024,2.186-.018a.354.354,0,0,0,.375-.259,4.359,4.359,0,0,1,2.332-2.279.381.381,0,0,0,.276-.427c-.018-1.05-.032-2.1-.009-3.15.007-.307-.066-.377-.36-.376-2.475.01-4.951.006-7.426.006ZM61.313,15.68h0c0,1.7,0,3.406-.006,5.109,0,.234.05.324.3.32.8-.013,1.606,0,2.41-.007a1.326,1.326,0,0,0,1.327-1.3c.011-2.657.015-5.313-.005-7.97a1.421,1.421,0,0,0-1.576-1.518c-.739,0-1.478.013-2.216.009-.167,0-.229.043-.228.215q.007,2.57,0,5.141M61.3,37.319c0,.166,0,.292,0,.418.009.847.026,1.693.025,2.54q0,3.7-.025,7.394c0,.208.056.28.273.276q1.334-.02,2.668-.007a.832.832,0,0,0,.818-.463,2.211,2.211,0,0,0,.267-.9c.021-2.476.012-4.951.012-7.427,0-.2.007-.408,0-.611a1.2,1.2,0,0,0-1.026-1.212c-.984-.028-1.97-.008-3.009-.008m.016-2.859c.1.009.181.022.264.022.847,0,1.693.009,2.54,0a1.206,1.206,0,0,0,1.216-1.225c0-2.637.016-5.274-.015-7.91a3.012,3.012,0,0,0-.356-1.108.694.694,0,0,0-.691-.382c-.943,0-1.886,0-2.829,0a.492.492,0,0,0-.128.04ZM67.6,63.7c-.107.089-.167.132-.219.183-1.07,1.065-2.137,2.133-3.211,3.194-.182.179-.216.312,0,.492a7.91,7.91,0,0,1,.593.588,2.613,2.613,0,0,0,2.139.815,2.478,2.478,0,0,0,1.989-3.761A8.228,8.228,0,0,0,67.6,63.7M50.119,47.082,44.539,44.3l-.1.081L47.2,49.874l2.915-2.792M4.518,26.465a1.475,1.475,0,0,0-1.578.8,1.428,1.428,0,0,0,.4,1.71,3.532,3.532,0,0,0,.857.308c.28.1.332-.029.328-.274-.01-.6,0-1.2-.006-1.8,0-.253,0-.505,0-.752M4.494,61.5V58.7a1.278,1.278,0,0,0-1.429.488,1.445,1.445,0,0,0-.058,1.553,1.662,1.662,0,0,0,1.487.763m0-16.164V42.507c-1.1-.026-1.666.6-1.659,1.357A1.432,1.432,0,0,0,4.491,45.34M4.5,10.309a1.747,1.747,0,0,0-1.483.724A1.6,1.6,0,0,0,3.1,12.648a1.292,1.292,0,0,0,1.4.453Z" transform="translate(0 0)" fill="#124877"/>
          <path id="Path_873979" data-name="Path 873979" d="M198.505,133.543c.44.028.914.023,1.377.1a1.365,1.365,0,0,1,1.176,1.327,1.344,1.344,0,0,1-1.047,1.328,1.114,1.114,0,0,1-.313.066c-.876,0-1.757.043-2.627-.035a1.352,1.352,0,0,1-1.235-1.374,1.386,1.386,0,0,1,1.262-1.321c.453-.066.917-.06,1.408-.089" transform="translate(-145.306 -99.086)" fill="#124877"/>
          <path id="Path_873980" data-name="Path 873980" d="M63.521,188.723a3.182,3.182,0,0,1,.4-.745c.531-.6,1.1-1.176,1.677-1.729a1.233,1.233,0,0,1,1.35-.348,1.344,1.344,0,0,1,.683,2.162,20.1,20.1,0,0,1-1.822,1.851,1.232,1.232,0,0,1-1.491.193,1.506,1.506,0,0,1-.8-1.385" transform="translate(-47.131 -137.875)" fill="#124877"/>
          <path id="Path_873981" data-name="Path 873981" d="M41.626,136.523c-.332,0-.664.005-1,0a1.5,1.5,0,0,1-1.468-1.348,1.4,1.4,0,0,1,1.259-1.419,15.652,15.652,0,0,1,2.432,0,1.337,1.337,0,0,1,1.261,1.464,1.458,1.458,0,0,1-1.462,1.3c-.342.007-.685,0-1.027,0" transform="translate(-29.057 -99.207)" fill="#124877"/>
          <path id="Path_873982" data-name="Path 873982" d="M176.878,79.484a1.489,1.489,0,0,1-1.418-.781,1.132,1.132,0,0,1,.109-1.354,16.4,16.4,0,0,1,1.738-1.75,1.3,1.3,0,0,1,1.844.19,1.258,1.258,0,0,1-.025,1.8,19.77,19.77,0,0,1-1.551,1.537,2.639,2.639,0,0,1-.7.361" transform="translate(-130.06 -55.868)" fill="#124877"/>
          <path id="Path_873983" data-name="Path 873983" d="M67.7,78.074a1.5,1.5,0,0,1-.812,1.3,1.171,1.171,0,0,1-1.411-.137c-.582-.537-1.155-1.089-1.681-1.679a1.228,1.228,0,0,1,.015-1.672,1.275,1.275,0,0,1,1.731-.294,7.979,7.979,0,0,1,2.006,2.06,1.669,1.669,0,0,1,.151.42" transform="translate(-47.099 -55.924)" fill="#124877"/>
          <path id="Path_873984" data-name="Path 873984" d="M124.891,53.243c0,.321.016.643,0,.963a1.382,1.382,0,0,1-2.758.036,16.214,16.214,0,0,1,0-1.991,1.446,1.446,0,0,1,1.295-1.35c.627-.123,1.4.611,1.447,1.314.021.341,0,.685,0,1.027h.016" transform="translate(-90.595 -37.758)" fill="#124877"/>
          <path id="Path_873985" data-name="Path 873985" d="M124.908,1.476a1.446,1.446,0,0,1-1.424,1.373,1.391,1.391,0,0,1-1.345-1.434A1.383,1.383,0,0,1,123.55.052a1.413,1.413,0,0,1,1.358,1.424" transform="translate(-90.625 -0.038)" fill="#124877"/>
          <path id="Path_873986" data-name="Path 873986" d="M106.056,115.033c-.711,0-1.376.025-2.037-.01a2.678,2.678,0,0,1-1.047-.229,1.254,1.254,0,0,1-.556-1.773c.4-.732.858-1.432,1.3-2.139q2.481-3.96,4.969-7.916c.045-.072.092-.144.143-.214a1.363,1.363,0,0,1,1.532-.6,1.476,1.476,0,0,1,1.016,1.414c.006,1.575.009,3.151,0,4.727,0,.257.053.355.334.348.793-.018,1.586-.016,2.379,0a1.354,1.354,0,0,1,1.455,1.177,1.564,1.564,0,0,1-.211.966c-.471.777-1.009,1.514-1.524,2.264q-2.474,3.6-4.949,7.2a1.873,1.873,0,0,1-1.128.936A1.31,1.31,0,0,1,106.093,120c-.05-.887-.03-1.778-.035-2.667,0-.748,0-1.5,0-2.3m5.54-3.6c-.273,0-.483,0-.693,0a10.215,10.215,0,0,1-1.184-.039,1.291,1.291,0,0,1-1.124-1.314c0-.471.007-.942.007-1.413a2.919,2.919,0,0,0-.045-.324l-2.455,3.925c.524,0,.951,0,1.378,0a1.239,1.239,0,0,1,1.314,1.07,8.576,8.576,0,0,1,.064,1.246c.007.223,0,.447,0,.671l.086.021,2.652-3.841" transform="translate(-75.865 -75.75)" fill="#124877"/>
        </g>
      </g>
    </g>
  </g>
</svg>
