<svg xmlns="http://www.w3.org/2000/svg" xmlns:xlink="http://www.w3.org/1999/xlink" width="139" height="139" viewBox="0 0 139 139">
  <defs>
    <clipPath id="clip-path">
      <rect id="Rectangle_400938" data-name="Rectangle 400938" width="139" height="139" transform="translate(0 0)" fill="none"/>
    </clipPath>
    <clipPath id="clip-path-2">
      <path id="Path_615713" data-name="Path 615713" d="M39.432,5.414C19.942,12.637,5,30.148,1.309,50.435A65.95,65.95,0,0,0,0,63.479,66.849,66.849,0,0,0,53.626,129a57.04,57.04,0,0,0,13.009,1.166c16.527-1.869,26.618-17.7,25.53-33.825-.89-16.127-1.484-35.122,13.43-44.847,3.8-3.32,7.228-6.021,10.1-8.385,8.225-5.24,11.49-17.211,4.367-24.335C107.216,5.8,88.72,0,70.18,0A89.784,89.784,0,0,0,39.432,5.414" fill="none"/>
    </clipPath>
    <clipPath id="clip-path-3">
      <rect id="Rectangle_378821" data-name="Rectangle 378821" width="139.916" height="139.916" fill="#0d599b"/>
    </clipPath>
    <clipPath id="clip-path-4">
      <path id="Path_615689" data-name="Path 615689" d="M77.285,76.984.3,0Q.1,1.91,0,3.827L73.461,77.285q1.912-.095,3.824-.3" fill="#0d599b"/>
    </clipPath>
    <clipPath id="clip-path-5">
      <path id="Path_615690" data-name="Path 615690" d="M9.922,12.462a69.954,69.954,0,0,0,12.461,9.921L0,0A70.129,70.129,0,0,0,9.922,12.462" fill="#0d599b"/>
    </clipPath>
    <clipPath id="clip-path-6">
      <path id="Path_615691" data-name="Path 615691" d="M.92,5.045,54.174,58.3q2.5.547,5.04.915L0,0C.247,1.69.548,3.372.92,5.045" fill="#0d599b"/>
    </clipPath>
    <clipPath id="clip-path-7">
      <path id="Path_615692" data-name="Path 615692" d="M2.442,6.572,39.005,43.135a69.255,69.255,0,0,0,6.571,2.441L0,0A68.993,68.993,0,0,0,2.442,6.572" fill="#0d599b"/>
    </clipPath>
    <clipPath id="clip-path-8">
      <path id="Path_615693" data-name="Path 615693" d="M.173,4.3,64.9,69.022c1.433.1,2.866.159,4.3.175L0,0Q.02,2.15.173,4.3" fill="#0d599b"/>
    </clipPath>
    <clipPath id="clip-path-9">
      <path id="Path_615694" data-name="Path 615694" d="M89.074,85.889,3.185,0C2.117.29,1.054.6,0,.945L88.131,89.075q.507-1.587.943-3.187" fill="#0d599b"/>
    </clipPath>
    <clipPath id="clip-path-10">
      <path id="Path_615695" data-name="Path 615695" d="M83.842,80.37,3.475,0C2.312.193,1.152.408,0,.657L83.186,83.846c.249-1.157.466-2.312.656-3.476" fill="#0d599b"/>
    </clipPath>
    <clipPath id="clip-path-11">
      <path id="Path_615696" data-name="Path 615696" d="M77.29,73.463,3.827,0C2.55.065,1.274.17,0,.3L76.987,77.288c.135-1.27.237-2.55.3-3.825" fill="#0d599b"/>
    </clipPath>
    <clipPath id="clip-path-12">
      <path id="Path_615697" data-name="Path 615697" d="M93.2,90.263,2.935,0Q1.456.563,0,1.188L92.008,93.2q.628-1.457,1.191-2.935" fill="#0d599b"/>
    </clipPath>
    <clipPath id="clip-path-13">
      <path id="Path_615698" data-name="Path 615698" d="M96.363,93.642,2.719,0Q1.345.673,0,1.413L94.951,96.364c.491-.9.962-1.8,1.412-2.722" fill="#0d599b"/>
    </clipPath>
    <clipPath id="clip-path-14">
      <path id="Path_615699" data-name="Path 615699" d="M69.025,64.9,4.3.174Q2.151.022,0,0L69.2,69.2c-.016-1.436-.072-2.872-.175-4.3" fill="#0d599b"/>
    </clipPath>
    <clipPath id="clip-path-15">
      <path id="Path_615700" data-name="Path 615700" d="M43.134,39,6.577,2.443Q3.341,1.054,0,0L45.579,45.576A69.054,69.054,0,0,0,43.134,39" fill="#0d599b"/>
    </clipPath>
    <clipPath id="clip-path-16">
      <path id="Path_615701" data-name="Path 615701" d="M83.839,83.185.652,0Q.282,1.726,0,3.472L80.369,83.839q1.742-.285,3.47-.654" fill="#0d599b"/>
    </clipPath>
    <clipPath id="clip-path-17">
      <path id="Path_615702" data-name="Path 615702" d="M12.462,9.923A70.309,70.309,0,0,0,0,0L22.385,22.388A70.1,70.1,0,0,0,12.462,9.923" fill="#0d599b"/>
    </clipPath>
    <clipPath id="clip-path-18">
      <path id="Path_615703" data-name="Path 615703" d="M58.3,54.173,5.043.92C3.372.548,1.689.247,0,0L59.217,59.214c-.247-1.687-.551-3.372-.92-5.041" fill="#0d599b"/>
    </clipPath>
    <clipPath id="clip-path-19">
      <path id="Path_615704" data-name="Path 615704" d="M98.661,96.138,2.522,0C1.672.516.829,1.051,0,1.605L97.052,98.66q.834-1.25,1.609-2.522" fill="#0d599b"/>
    </clipPath>
    <clipPath id="clip-path-20">
      <path id="Path_615705" data-name="Path 615705" d="M98.659,97.051,1.608,0Q.774,1.243,0,2.518l96.142,96.14c.845-.514,1.687-1.053,2.518-1.608" fill="#0d599b"/>
    </clipPath>
    <clipPath id="clip-path-21">
      <path id="Path_615706" data-name="Path 615706" d="M96.365,94.951,1.413,0Q.676,1.345,0,2.722L93.643,96.364c.915-.448,1.822-.922,2.721-1.413" fill="#0d599b"/>
    </clipPath>
    <clipPath id="clip-path-22">
      <path id="Path_615707" data-name="Path 615707" d="M93.2,92.007,1.191,0C.771.972.371,1.954,0,2.942L90.26,93.2q1.481-.563,2.941-1.2" fill="#0d599b"/>
    </clipPath>
    <clipPath id="clip-path-23">
      <path id="Path_615708" data-name="Path 615708" d="M89.082,88.134.945,0Q.436,1.586,0,3.188L85.89,89.077c1.07-.29,2.13-.6,3.191-.943" fill="#0d599b"/>
    </clipPath>
    <clipPath id="clip-path-24">
      <path id="Path_615709" data-name="Path 615709" d="M100.158,98.364,1.8,0C1.18.77.578,1.544,0,2.332l97.832,97.829c.785-.58,1.558-1.182,2.326-1.8" fill="#0d599b"/>
    </clipPath>
    <clipPath id="clip-path-25">
      <path id="Path_615710" data-name="Path 615710" d="M100.893,98.74,2.154,0Q1.059.962,0,1.973l98.92,98.921q1.014-1.064,1.973-2.154" fill="#0d599b"/>
    </clipPath>
    <clipPath id="clip-path-26">
      <path id="Path_615711" data-name="Path 615711" d="M100.9,98.917,1.974,0Q.961,1.06,0,2.152l98.741,98.742q1.092-.962,2.155-1.977" fill="#0d599b"/>
    </clipPath>
    <clipPath id="clip-path-27">
      <path id="Path_615712" data-name="Path 615712" d="M100.16,97.832,2.332,0C1.543.58.77,1.182,0,1.8l98.36,98.362c.618-.766,1.221-1.545,1.8-2.33" fill="#0d599b"/>
    </clipPath>
    <clipPath id="clip-path-28">
      <rect id="Rectangle_401336" data-name="Rectangle 401336" width="73.646" height="73.19" fill="#124877"/>
    </clipPath>
  </defs>
  <g id="Group_1100535" data-name="Group 1100535" transform="translate(-735 -8608.563)">
    <g id="Group_1099787" data-name="Group 1099787" transform="translate(417 2214.563)">
      <g id="Mask_Group_1098657" data-name="Mask Group 1098657" transform="translate(318 6394)" clip-path="url(#clip-path)">
        <g id="Group_1098881" data-name="Group 1098881" transform="translate(4.408 128.492) rotate(-90)">
          <g id="Group_1074821" data-name="Group 1074821" transform="translate(0 0)" clip-path="url(#clip-path-2)">
            <g id="Group_1074820" data-name="Group 1074820" transform="translate(-4.97 -9.729)" opacity="0.5">
              <g id="Group_1074819" data-name="Group 1074819">
                <g id="Group_1074818" data-name="Group 1074818" clip-path="url(#clip-path-3)">
                  <g id="Group_1074771" data-name="Group 1074771" transform="translate(0.085 62.545)">
                    <g id="Group_1074770" data-name="Group 1074770" clip-path="url(#clip-path-4)">
                      <rect id="Rectangle_378797" data-name="Rectangle 378797" width="109.298" height="109.298" transform="translate(-38.643 38.643) rotate(-45)" fill="#0d599b"/>
                    </g>
                  </g>
                  <g id="Group_1074773" data-name="Group 1074773" transform="translate(10.563 106.969)">
                    <g id="Group_1074772" data-name="Group 1074772" clip-path="url(#clip-path-5)">
                      <rect id="Rectangle_378798" data-name="Rectangle 378798" width="31.655" height="31.655" transform="translate(-11.191 11.191) rotate(-45)" fill="#0d599b"/>
                    </g>
                  </g>
                  <g id="Group_1074775" data-name="Group 1074775" transform="translate(0.709 79.991)">
                    <g id="Group_1074774" data-name="Group 1074774" clip-path="url(#clip-path-6)">
                      <rect id="Rectangle_378799" data-name="Rectangle 378799" width="83.743" height="83.743" transform="translate(-29.608 29.608) rotate(-45)" fill="#0d599b"/>
                    </g>
                  </g>
                  <g id="Group_1074777" data-name="Group 1074777" transform="translate(3.249 91.09)">
                    <g id="Group_1074776" data-name="Group 1074776" clip-path="url(#clip-path-7)">
                      <rect id="Rectangle_378800" data-name="Rectangle 378800" width="64.455" height="64.455" transform="translate(-22.788 22.788) rotate(-45)" fill="#0d599b"/>
                    </g>
                  </g>
                  <g id="Group_1074779" data-name="Group 1074779" transform="translate(0 70.72)">
                    <g id="Group_1074778" data-name="Group 1074778" clip-path="url(#clip-path-8)">
                      <rect id="Rectangle_378801" data-name="Rectangle 378801" width="97.856" height="97.856" transform="translate(-34.598 34.598) rotate(-45)" fill="#0d599b"/>
                    </g>
                  </g>
                  <g id="Group_1074781" data-name="Group 1074781" transform="translate(48.408 2.434)">
                    <g id="Group_1074780" data-name="Group 1074780" clip-path="url(#clip-path-9)">
                      <rect id="Rectangle_378802" data-name="Rectangle 378802" width="125.97" height="125.97" transform="translate(-44.538 44.538) rotate(-45)" fill="#0d599b"/>
                    </g>
                  </g>
                  <g id="Group_1074783" data-name="Group 1074783" transform="translate(55.161 0.912)">
                    <g id="Group_1074782" data-name="Group 1074782" clip-path="url(#clip-path-10)">
                      <rect id="Rectangle_378803" data-name="Rectangle 378803" width="118.573" height="118.573" transform="translate(-41.923 41.923) rotate(-45)" fill="#0d599b"/>
                    </g>
                  </g>
                  <g id="Group_1074785" data-name="Group 1074785" transform="translate(62.541 0.086)">
                    <g id="Group_1074784" data-name="Group 1074784" clip-path="url(#clip-path-11)">
                      <rect id="Rectangle_378804" data-name="Rectangle 378804" width="109.303" height="109.303" transform="translate(-38.644 38.644) rotate(-45)" fill="#0d599b"/>
                    </g>
                  </g>
                  <g id="Group_1074787" data-name="Group 1074787" transform="translate(42.188 4.529)">
                    <g id="Group_1074786" data-name="Group 1074786" clip-path="url(#clip-path-12)">
                      <rect id="Rectangle_378805" data-name="Rectangle 378805" width="131.803" height="131.803" transform="translate(-46.599 46.599) rotate(-45)" fill="#0d599b"/>
                    </g>
                  </g>
                  <g id="Group_1074789" data-name="Group 1074789" transform="translate(36.434 7.12)">
                    <g id="Group_1074788" data-name="Group 1074788" clip-path="url(#clip-path-13)">
                      <rect id="Rectangle_378806" data-name="Rectangle 378806" width="136.278" height="136.278" transform="translate(-48.182 48.182) rotate(-45)" fill="#0d599b"/>
                    </g>
                  </g>
                  <g id="Group_1074791" data-name="Group 1074791" transform="translate(70.716 0)">
                    <g id="Group_1074790" data-name="Group 1074790" clip-path="url(#clip-path-14)">
                      <rect id="Rectangle_378807" data-name="Rectangle 378807" width="97.864" height="97.864" transform="translate(-34.6 34.6) rotate(-45)" fill="#0d599b"/>
                    </g>
                  </g>
                  <g id="Group_1074793" data-name="Group 1074793" transform="translate(91.089 3.249)">
                    <g id="Group_1074792" data-name="Group 1074792" clip-path="url(#clip-path-15)">
                      <rect id="Rectangle_378808" data-name="Rectangle 378808" width="64.456" height="64.456" transform="translate(-22.788 22.788) rotate(-45)" fill="#0d599b"/>
                    </g>
                  </g>
                  <g id="Group_1074795" data-name="Group 1074795" transform="translate(0.913 55.165)">
                    <g id="Group_1074794" data-name="Group 1074794" clip-path="url(#clip-path-16)">
                      <rect id="Rectangle_378809" data-name="Rectangle 378809" width="118.566" height="118.566" transform="translate(-41.919 41.919) rotate(-45)" fill="#0d599b"/>
                    </g>
                  </g>
                  <g id="Group_1074797" data-name="Group 1074797" transform="translate(106.968 10.562)">
                    <g id="Group_1074796" data-name="Group 1074796" clip-path="url(#clip-path-17)">
                      <rect id="Rectangle_378810" data-name="Rectangle 378810" width="31.659" height="31.659" transform="translate(-11.194 11.194) rotate(-45)" fill="#0d599b"/>
                    </g>
                  </g>
                  <g id="Group_1074799" data-name="Group 1074799" transform="translate(79.99 0.711)">
                    <g id="Group_1074798" data-name="Group 1074798" clip-path="url(#clip-path-18)">
                      <rect id="Rectangle_378811" data-name="Rectangle 378811" width="83.743" height="83.743" transform="translate(-29.607 29.607) rotate(-45)" fill="#0d599b"/>
                    </g>
                  </g>
                  <g id="Group_1074801" data-name="Group 1074801" transform="translate(31.102 10.154)">
                    <g id="Group_1074800" data-name="Group 1074800" clip-path="url(#clip-path-19)">
                      <rect id="Rectangle_378812" data-name="Rectangle 378812" width="139.527" height="139.527" transform="translate(-49.33 49.33) rotate(-45)" fill="#0d599b"/>
                    </g>
                  </g>
                  <g id="Group_1074803" data-name="Group 1074803" transform="translate(10.152 31.103)">
                    <g id="Group_1074802" data-name="Group 1074802" clip-path="url(#clip-path-20)">
                      <rect id="Rectangle_378813" data-name="Rectangle 378813" width="139.525" height="139.525" transform="translate(-49.329 49.329) rotate(-45)" fill="#0d599b"/>
                    </g>
                  </g>
                  <g id="Group_1074805" data-name="Group 1074805" transform="translate(7.118 36.434)">
                    <g id="Group_1074804" data-name="Group 1074804" clip-path="url(#clip-path-21)">
                      <rect id="Rectangle_378814" data-name="Rectangle 378814" width="136.28" height="136.28" transform="translate(-48.182 48.182) rotate(-45)" fill="#0d599b"/>
                    </g>
                  </g>
                  <g id="Group_1074807" data-name="Group 1074807" transform="translate(4.529 42.186)">
                    <g id="Group_1074806" data-name="Group 1074806" clip-path="url(#clip-path-22)">
                      <rect id="Rectangle_378815" data-name="Rectangle 378815" width="131.808" height="131.808" transform="translate(-46.601 46.601) rotate(-45)" fill="#0d599b"/>
                    </g>
                  </g>
                  <g id="Group_1074809" data-name="Group 1074809" transform="translate(2.431 48.405)">
                    <g id="Group_1074808" data-name="Group 1074808" clip-path="url(#clip-path-23)">
                      <rect id="Rectangle_378816" data-name="Rectangle 378816" width="125.977" height="125.977" transform="translate(-44.538 44.538) rotate(-45)" fill="#0d599b"/>
                    </g>
                  </g>
                  <g id="Group_1074811" data-name="Group 1074811" transform="translate(13.59 26.165)">
                    <g id="Group_1074810" data-name="Group 1074810" clip-path="url(#clip-path-24)">
                      <rect id="Rectangle_378817" data-name="Rectangle 378817" width="141.647" height="141.647" transform="translate(-50.081 50.081) rotate(-45)" fill="#0d599b"/>
                    </g>
                  </g>
                  <g id="Group_1074813" data-name="Group 1074813" transform="translate(21.606 17.416)">
                    <g id="Group_1074812" data-name="Group 1074812" clip-path="url(#clip-path-25)">
                      <rect id="Rectangle_378818" data-name="Rectangle 378818" width="142.685" height="142.685" transform="translate(-50.447 50.447) rotate(-45)" fill="#0d599b"/>
                    </g>
                  </g>
                  <g id="Group_1074815" data-name="Group 1074815" transform="translate(17.415 21.608)">
                    <g id="Group_1074814" data-name="Group 1074814" clip-path="url(#clip-path-26)">
                      <rect id="Rectangle_378819" data-name="Rectangle 378819" width="142.686" height="142.686" transform="translate(-50.447 50.447) rotate(-45)" fill="#0d599b"/>
                    </g>
                  </g>
                  <g id="Group_1074817" data-name="Group 1074817" transform="translate(26.166 13.587)">
                    <g id="Group_1074816" data-name="Group 1074816" clip-path="url(#clip-path-27)">
                      <rect id="Rectangle_378820" data-name="Rectangle 378820" width="141.649" height="141.649" transform="translate(-50.081 50.081) rotate(-45)" fill="#0d599b"/>
                    </g>
                  </g>
                </g>
              </g>
            </g>
          </g>
        </g>
      </g>
      <ellipse id="Ellipse_11492" data-name="Ellipse 11492" cx="35.5" cy="37" rx="35.5" ry="37" transform="translate(348 6444)" fill="#e3f1fd" opacity="0.81"/>
      <path id="Union_5" data-name="Union 5" d="M87.484,118.213a14.655,14.655,0,0,1-5.983-3.542,48.98,48.98,0,0,1-5.1-5.829C69.986,99.286,61.522,90.5,48.639,87.528c-8.369-1.911-16.183-1.41-24.385-1.908-8.4-.52-16.937-3.843-20.642-11.049A28.172,28.172,0,0,1,.53,67.089c-.072-.279-.14-.56-.205-.845A55.665,55.665,0,0,1,.343,54.071,57.006,57.006,0,0,1,3.124,41.78C10.161,21.37,27.794,6.6,48.843.88,78.512-3.485,96.126,9.669,100.1,12.315a88.853,88.853,0,0,1,11.111,8.707A65.621,65.621,0,0,1,128.621,70.71c-.735,13.015-5.567,22.989-12.064,33.755-5.175,6.938-13.912,13.432-22.623,14.288q-.941.093-1.88.094A16.192,16.192,0,0,1,87.484,118.213Z" transform="translate(320.893 6407.153)" fill="#fff" stroke="rgba(0,0,0,0)" stroke-miterlimit="10" stroke-width="1" opacity="0.95"/>
    </g>
    <g id="Group_1099790" data-name="Group 1099790" transform="translate(354.65 2601.027)">
      <path id="Path_873216" data-name="Path 873216" d="M0,0H73.645V73.647H0Z" transform="translate(408.527 6040.213)" fill="none"/>
      <g id="Group_1099795" data-name="Group 1099795" transform="translate(408.527 6039.578)">
        <g id="Group_1099794" data-name="Group 1099794" clip-path="url(#clip-path-28)">
          <path id="Path_873953" data-name="Path 873953" d="M23.044,20.889c0-.2,0-.334,0-.472,0-1.939,0-3.878-.013-5.817a1.453,1.453,0,0,1,.872-1.438Q32.311,8.81,40.7,4.429c2.707-1.409,5.426-2.8,8.112-4.244A1.188,1.188,0,0,1,50.642,1.3c-.03,6.453-.018,12.906-.019,19.358,0,.054.012.107.023.212a3.35,3.35,0,0,0,.363-.13q6.786-3.377,13.571-6.758,3.745-1.864,7.5-3.718a1.045,1.045,0,0,1,1.422.575,3,3,0,0,1,.142.933q.011,10.238.006,20.476V71.494c0,.121,0,.241,0,.362a1.232,1.232,0,0,1-1.28,1.327c-.12.008-.241,0-.362,0q-35.169,0-70.339,0C.614,73.19,0,72.984,0,71.538q.024-29.86.013-59.719a3.793,3.793,0,0,1,.06-.684A1.069,1.069,0,0,1,1.666,10.3c2.15,1.055,4.292,2.127,6.436,3.194L21.67,20.251q.514.256,1.032.5c.093.045.193.076.343.134M2.388,66.319H23.036v-.749q0-20.146,0-40.291c0-.537-.006-1.074,0-1.61a.333.333,0,0,0-.21-.357q-9.844-4.89-19.683-9.791c-.248-.124-.492-.256-.759-.4Zm68.878.017v-53.2c-.265.135-.5.26-.745.38l-18.883,9.4c-.332.165-.788.266-.95.537s-.066.741-.066,1.122q0,20.769,0,41.539a1.747,1.747,0,0,0,.029.223ZM25.259,40.553H48.381V2.966c-.224.107-.421.193-.612.293-1.57.82-3.138,1.647-4.709,2.465q-8.717,4.538-17.439,9.067a.582.582,0,0,0-.371.6q.015,12.39.008,24.781Zm5.257,25.786v-.412c0-4.646-.009-9.291.012-13.937a6.3,6.3,0,0,1,11.981-2.7,6.848,6.848,0,0,1,.634,3.185q-.01,6.738,0,13.476v.376h5.237V42.812h-23.1V66.339ZM2.4,70.8H71.253V68.613H2.4Zm38.395-4.47c0-.509,0-.978,0-1.446q0-6.684-.014-13.368a2.809,2.809,0,0,0-.205-1.036,4.022,4.022,0,0,0-6.2-1.718,3.746,3.746,0,0,0-1.542,3.195c.018,4.708-.009,9.417-.017,14.126a2.054,2.054,0,0,0,.03.248Z" transform="translate(0 0)" fill="#124877"/>
          <path id="Path_873954" data-name="Path 873954" d="M55.875,119.143c-.734,0-1.468,0-2.2,0a1.148,1.148,0,0,1-1.255-1.274q0-2.136.008-4.272a1.239,1.239,0,0,1,1.35-1.349q2.054-.011,4.108,0a1.408,1.408,0,0,1,1.5,1.511q.006,2.021,0,4.042a1.276,1.276,0,0,1-1.337,1.342c-.723,0-1.446,0-2.169,0m1.116-4.573H54.666v2.324h2.325Z" transform="translate(-38.595 -82.642)" fill="#124877"/>
          <path id="Path_873955" data-name="Path 873955" d="M20.957,119.138c-.734,0-1.468.005-2.2,0a1.145,1.145,0,0,1-1.238-1.257q0-2.152.008-4.3a1.226,1.226,0,0,1,1.3-1.33q2.119-.019,4.239,0a1.377,1.377,0,0,1,1.411,1.425q.019,2.1,0,4.206a1.259,1.259,0,0,1-1.286,1.258c-.745.006-1.49,0-2.235,0m-1.195-2.258h2.324v-2.324H19.762Z" transform="translate(-12.898 -82.637)" fill="#124877"/>
          <path id="Path_873956" data-name="Path 873956" d="M55.8,188.617q-1.149,0-2.3,0A1,1,0,0,1,52.42,187.6q-.025-2.3.012-4.6a1.109,1.109,0,0,1,1.165-1.178c1.5-.059,3-.065,4.494,0a1.28,1.28,0,0,1,1.276,1.4q.035,2.035,0,4.071a1.258,1.258,0,0,1-1.036,1.322c-.316.023-.635.007-.952.008H55.8m-1.159-4.456c0,.694-.005,1.349.007,2,0,.08.091.227.142.228.729.015,1.459.01,2.193.01v-2.243Z" transform="translate(-38.588 -133.838)" fill="#124877"/>
          <path id="Path_873957" data-name="Path 873957" d="M20.915,188.684h-2.3a1.013,1.013,0,0,1-1.1-1.039q-.022-2.265.009-4.531a1.08,1.08,0,0,1,1.06-1.2c1.55-.064,3.1-.059,4.655-.023.822.02,1.2.655,1.221,1.41.041,1.334.027,2.67.007,4.005a1.27,1.27,0,0,1-1.419,1.378H20.915m1.165-4.452H19.761v2.224H22.08Z" transform="translate(-12.891 -133.904)" fill="#124877"/>
          <path id="Path_873958" data-name="Path 873958" d="M52.421,220.12c0-.7-.006-1.4,0-2.1.01-.865.409-1.322,1.272-1.342q2.15-.049,4.3,0c.877.018,1.316.435,1.364,1.434.064,1.322.057,2.651,0,3.973-.041.994-.511,1.419-1.436,1.419-1.391,0-2.781,0-4.172,0-.95,0-1.344-.415-1.343-1.374q0-1,0-2Zm4.563,1.12V219H54.645c0,.7,0,1.365,0,2.03,0,.215.124.209.28.208.676-.006,1.352,0,2.061,0" transform="translate(-38.591 -159.517)" fill="#124877"/>
          <path id="Path_873959" data-name="Path 873959" d="M17.52,220.147c0-.712-.007-1.424,0-2.135a1.175,1.175,0,0,1,1.277-1.337c1.423-.032,2.847-.03,4.27,0,.886.017,1.341.413,1.391,1.442.064,1.322.057,2.651,0,3.973-.041.985-.507,1.409-1.409,1.411-1.412,0-2.825.008-4.238,0-.909-.006-1.3-.426-1.3-1.346q0-1,0-2Zm2.224-1.155c0,.712-.006,1.377.009,2.042a.293.293,0,0,0,.2.2c.706.015,1.412.009,2.127.009v-2.252Z" transform="translate(-12.894 -159.517)" fill="#124877"/>
          <path id="Path_873960" data-name="Path 873960" d="M20.9,153.765c-.734,0-1.468,0-2.2,0a1.046,1.046,0,0,1-1.156-1.068q-.037-2.3,0-4.6a1.284,1.284,0,0,1,1.373-1.223q2.054-.035,4.108,0a1.467,1.467,0,0,1,1.458,1.51q.014,1.988,0,3.977a1.291,1.291,0,0,1-1.45,1.39c-.712-.015-1.424,0-2.136,0v.018m-1.127-2.2H22.1v-2.3H19.769Z" transform="translate(-12.9 -108.128)" fill="#124877"/>
          <path id="Path_873961" data-name="Path 873961" d="M55.817,153.762c-.734,0-1.468,0-2.2,0a1.043,1.043,0,0,1-1.173-1.048q-.042-2.316,0-4.633a1.272,1.272,0,0,1,1.352-1.208q2.07-.04,4.141,0a1.457,1.457,0,0,1,1.444,1.489q.018,2.021,0,4.042a1.273,1.273,0,0,1-1.4,1.344c-.723-.01-1.446,0-2.169,0,0,.006,0,.011,0,.017m1.169-4.515H54.674v2.316h2.312Z" transform="translate(-38.598 -108.126)" fill="#124877"/>
          <path id="Path_873962" data-name="Path 873962" d="M242.343,115.74c0,.722,0,1.444,0,2.166a1.136,1.136,0,0,1-1.218,1.239c-1.434,0-2.867,0-4.3-.011a1.323,1.323,0,0,1-1.45-1.477q0-1.9,0-3.808a1.434,1.434,0,0,1,1.6-1.6q2.019,0,4.038,0a1.21,1.21,0,0,1,1.322,1.325c0,.722,0,1.444,0,2.167h.006m-4.578,1.146h2.324v-2.324h-2.324Z" transform="translate(-173.301 -82.646)" fill="#124877"/>
          <path id="Path_873963" data-name="Path 873963" d="M207.442,115.731c0,.723,0,1.446,0,2.169a1.136,1.136,0,0,1-1.215,1.245q-2.169,0-4.338-.013a1.315,1.315,0,0,1-1.416-1.448q0-1.923,0-3.846a1.429,1.429,0,0,1,1.585-1.587q2.021,0,4.043,0a1.212,1.212,0,0,1,1.335,1.347c0,.362-.006.723-.007,1.085s0,.7,0,1.052h.013m-2.26-1.157h-2.324V116.9h2.324Z" transform="translate(-147.604 -82.646)" fill="#124877"/>
          <path id="Path_873964" data-name="Path 873964" d="M238.912,188.6h-2.169a1.226,1.226,0,0,1-1.391-1.265c-.041-1.39-.038-2.782,0-4.172a1.3,1.3,0,0,1,1.37-1.382q2.134-.061,4.271,0a1.235,1.235,0,0,1,1.3,1.4q.01,2.119.011,4.238a1.054,1.054,0,0,1-1.191,1.184h-2.2m1.132-4.453h-2.316v2.227h2.316Z" transform="translate(-173.263 -133.816)" fill="#124877"/>
          <path id="Path_873965" data-name="Path 873965" d="M204.007,188.6h-2.169a1.246,1.246,0,0,1-1.389-1.307q-.043-2.053,0-4.107a1.331,1.331,0,0,1,1.414-1.411q2.1-.049,4.206,0a1.248,1.248,0,0,1,1.329,1.413q.009,2.1.011,4.205a1.06,1.06,0,0,1-1.2,1.208h-2.2m1.142-4.454h-2.318v2.229h2.318Z" transform="translate(-147.572 -133.818)" fill="#124877"/>
          <path id="Path_873966" data-name="Path 873966" d="M242.308,220.19c0,.667,0,1.335,0,2a1.193,1.193,0,0,1-1.356,1.381c-1.182.01-2.364,0-3.546,0a7.012,7.012,0,0,1-.885-.025,1.249,1.249,0,0,1-1.171-1.337c-.025-1.367-.033-2.736.005-4.1a1.222,1.222,0,0,1,1.176-1.334c1.574-.028,3.15-.037,4.722.02.691.025,1.029.489,1.043,1.195.014.733,0,1.467,0,2.2Zm-4.6-1.108c0,.688,0,1.375.008,2.062a.246.246,0,0,0,.169.172c.718.012,1.437.008,2.171.008v-2.242Z" transform="translate(-173.269 -159.592)" fill="#124877"/>
          <path id="Path_873967" data-name="Path 873967" d="M207.407,220.209c0,.711.006,1.423,0,2.134a1.065,1.065,0,0,1-1.048,1.192q-2.377.071-4.757,0a1.188,1.188,0,0,1-1.149-1.311c-.028-1.367-.034-2.736,0-4.1a1.23,1.23,0,0,1,1.2-1.35c1.574-.027,3.149-.029,4.722.026a1.034,1.034,0,0,1,1.02,1.146c.02.755,0,1.51,0,2.265Zm-4.6-1.136c0,.694,0,1.381.008,2.068a.247.247,0,0,0,.166.174c.719.012,1.438.008,2.167.008v-2.25Z" transform="translate(-147.572 -159.592)" fill="#124877"/>
          <path id="Path_873968" data-name="Path 873968" d="M238.906,153.743c-.734,0-1.467,0-2.2,0a1.271,1.271,0,0,1-1.345-1.292c-.014-1.369-.017-2.738,0-4.106a1.443,1.443,0,0,1,1.451-1.474q2.069-.038,4.139,0a1.322,1.322,0,0,1,1.362,1.41q.012,2.135.012,4.27a1.089,1.089,0,0,1-1.218,1.212c-.733,0-1.467,0-2.2,0,0-.006,0-.012,0-.018m1.159-4.5h-2.321v2.315h2.321Z" transform="translate(-173.283 -108.125)" fill="#124877"/>
          <path id="Path_873969" data-name="Path 873969" d="M204,153.742c-.734,0-1.467-.005-2.2,0a1.271,1.271,0,0,1-1.344-1.293c-.014-1.368-.017-2.737,0-4.106a1.443,1.443,0,0,1,1.453-1.473q2.069-.038,4.139,0a1.322,1.322,0,0,1,1.361,1.411q.012,2.152.011,4.3a1.079,1.079,0,0,1-1.186,1.177c-.744,0-1.489,0-2.233,0v-.02m-1.163-2.184h2.325v-2.3H202.84Z" transform="translate(-147.586 -108.126)" fill="#124877"/>
          <path id="Path_873970" data-name="Path 873970" d="M113.259,95.691l-4.775,8.259-.172-.158c-.258-.241-.515-.483-.774-.722a.074.074,0,0,1-.016-.11q1.434-2.506,2.865-5.014c.045-.08.086-.163.137-.238a.467.467,0,0,0,.049-.378.4.4,0,0,0-.417-.331l-1.25,0-3.355.012c-.1,0-.2.005-.3.01-.042,0-.056-.014-.055-.056,0-.1,0-.207,0-.311q-.005-.439-.011-.878c0-.086,0-.086.084-.086h7.989Z" transform="translate(-77.447 -70.456)" fill="#124877"/>
          <path id="Path_873971" data-name="Path 873971" d="M121.831,108.487l4.4-7.558,4.478,7.509-1.195.623-.13-.219-2.787-4.735a.359.359,0,0,0-.249-.151.433.433,0,0,0-.469.2l-2.118,3.581q-.373.63-.746,1.261c-.021.036-.037.053-.083.03-.354-.175-.709-.347-1.063-.52-.012-.006-.023-.014-.043-.026" transform="translate(-89.702 -74.312)" fill="#124877"/>
          <path id="Path_873972" data-name="Path 873972" d="M141.6,95.736h7.9c.057,0,.075.015.075.074q0,.58,0,1.161c0,.058-.017.074-.074.074-.279,0-.558,0-.838,0q-2.027-.006-4.055-.013a.416.416,0,0,0-.421.408.581.581,0,0,0,.085.339q1.082,1.857,2.157,3.718c.287.495.573.99.862,1.484a.068.068,0,0,1-.017.1q-.456.405-.908.815l-.072.062-4.7-8.223" transform="translate(-104.258 -70.489)" fill="#124877"/>
          <path id="Path_873973" data-name="Path 873973" d="M133.5,70.525a1.888,1.888,0,1,1,1.886-1.952,1.879,1.879,0,0,1-1.886,1.952" transform="translate(-96.899 -49.145)" fill="#124877"/>
          <path id="Path_873974" data-name="Path 873974" d="M138.162,84.474v1.563c0,.084,0,.084-.086.084-.3,0-.59,0-.885,0-.059,0-.073-.019-.073-.075q0-1.155,0-2.309c0-.053.012-.073.07-.073.419,0,.837,0,1.256,0a.126.126,0,0,1,.1.046q.7.769,1.4,1.535c.018.02.033.043.049.065l.021-.013c0-.023,0-.045,0-.068,0-.5,0-.993,0-1.489,0-.058.016-.075.074-.074.3,0,.6,0,.9,0,.052,0,.069.014.069.068q0,1.16,0,2.321c0,.052-.015.068-.068.068q-.658,0-1.316,0a.117.117,0,0,1-.1-.048q-.671-.771-1.344-1.541c-.019-.022-.04-.042-.06-.063Z" transform="translate(-100.957 -61.6)" fill="#124877"/>
          <path id="Path_873975" data-name="Path 873975" d="M109.018,85.049c.157,0,.315,0,.473,0,.046,0,.065.013.062.061a.181.181,0,0,0,.111.189,1.3,1.3,0,0,0,.311.092,1.579,1.579,0,0,0,.593-.019.536.536,0,0,0,.153-.063.138.138,0,0,0-.006-.253,1.443,1.443,0,0,0-.329-.1c-.357-.068-.716-.126-1.073-.195a1.451,1.451,0,0,1-.48-.176.563.563,0,0,1-.286-.365.536.536,0,0,1,.236-.581,1.555,1.555,0,0,1,.635-.229,4.763,4.763,0,0,1,.987-.058,3.172,3.172,0,0,1,.894.129.933.933,0,0,1,.334.18.554.554,0,0,1,.18.373c0,.044-.011.06-.057.059-.3,0-.6,0-.9,0-.028,0-.053,0-.061-.038a.215.215,0,0,0-.152-.163.976.976,0,0,0-.225-.055,1.749,1.749,0,0,0-.557.018.406.406,0,0,0-.1.042.129.129,0,0,0,0,.24,1.392,1.392,0,0,0,.317.1c.374.072.751.133,1.125.207a1.239,1.239,0,0,1,.487.2.547.547,0,0,1-.012.932,1.512,1.512,0,0,1-.645.237,6.461,6.461,0,0,1-.646.062c-.214.01-.43.01-.644,0a2.461,2.461,0,0,1-.793-.151.661.661,0,0,1-.452-.553s0-.008,0-.012c-.015-.1-.007-.11.093-.11h.437" transform="translate(-79.874 -61.369)" fill="#124877"/>
          <path id="Path_873976" data-name="Path 873976" d="M157.375,86.125h-.094c-.351,0-.7,0-1.053,0a.1.1,0,0,1-.1-.057c-.06-.115-.126-.226-.188-.34a.079.079,0,0,0-.08-.047q-.811,0-1.621,0a.082.082,0,0,0-.081.046c-.064.111-.132.218-.194.33a.116.116,0,0,1-.117.069c-.315,0-.63,0-.945,0h-.07l.178-.259q.74-1.066,1.479-2.132a.129.129,0,0,1,.122-.064c.359,0,.718,0,1.076,0a.1.1,0,0,1,.1.05q.78,1.183,1.563,2.364l.025.041m-2.289-1.887-.572.912h1.108l-.536-.912" transform="translate(-112.528 -61.605)" fill="#124877"/>
          <path id="Path_873977" data-name="Path 873977" d="M125.061,86.12c-.477,0-.953,0-1.43,0-.057,0-.075-.016-.074-.074q0-1.154,0-2.309c0-.057.015-.075.074-.075q1.394,0,2.787,0c.058,0,.075.018.074.075,0,.126,0,.251,0,.377,0,.053-.017.068-.069.067-.566,0-1.133,0-1.7,0-.061,0-.081.016-.077.077a2.458,2.458,0,0,1,0,.257c0,.057.016.075.074.075.512,0,1.025,0,1.537,0,.09,0,.09,0,.09.092,0,.118,0,.235,0,.353,0,.055-.015.072-.071.072-.517,0-1.033,0-1.549,0-.081,0-.081,0-.081.082,0,.112,0,.223,0,.335,0,.058.017.074.075.074q.879,0,1.758,0c.082,0,.082,0,.082.082q0,.18,0,.359c0,.086,0,.086-.084.086h-1.418" transform="translate(-90.973 -61.6)" fill="#124877"/>
        </g>
      </g>
    </g>
  </g>
</svg>
