<svg xmlns="http://www.w3.org/2000/svg" xmlns:xlink="http://www.w3.org/1999/xlink" width="107" height="107" viewBox="0 0 107 107">
  <defs>
    <clipPath id="clip-path">
      <rect id="Rectangle_401615" data-name="Rectangle 401615" width="33.994" height="54" fill="#f3f9ff"/>
    </clipPath>
  </defs>
  <g id="Group_1100533" data-name="Group 1100533" transform="translate(-287 -5696.35)">
    <g id="Grupo_156312" data-name="Grupo 156312" transform="translate(-1.668 1247.913)">
      <path id="Elipse_5845" data-name="Elipse 5845" d="M53.5,0A53.5,53.5,0,1,1,0,53.5,53.5,53.5,0,0,1,53.5,0Z" transform="translate(288.668 4448.437)" fill="#0d599b"/>
    </g>
    <g id="Group_1099534" data-name="Group 1099534" transform="translate(-99.343 -321.679)">
      <path id="Path_873216" data-name="Path 873216" d="M0,0H62.815V62.816H0Z" transform="translate(408.527 6040.213)" fill="none"/>
      <g id="Group_1100379" data-name="Group 1100379" transform="translate(422.849 6043.206)">
        <g id="Group_1100378" data-name="Group 1100378" clip-path="url(#clip-path)">
          <path id="Path_874535" data-name="Path 874535" d="M.6,18.174c.182-.919.344-1.772.522-2.621.173-.825.365-1.646.544-2.469A15.348,15.348,0,0,1,7.151,4.308,16.292,16.292,0,0,1,17.919.5,16.267,16.267,0,0,1,28.095,4.121c.062.05.117.108.184.17l-1.64,1.883c-4.463-3.248-9.273-4.09-14.378-1.956S4.515,10.382,3.788,15.772c.466.051.957.117,1.45.155,1.364.106,2.73.191,4.093.307.294.025.3-.131.345-.322a10.9,10.9,0,0,1,1.388-3.582A8.1,8.1,0,0,1,20.143,9.2a7.751,7.751,0,0,1-.719,15.055c-.118.023-.234.057-.358.088v5.95a8.12,8.12,0,0,1,4.9,2.815,7.735,7.735,0,0,1-3.91,12.363A8.063,8.063,0,0,1,9.928,39.66c-.068-.314-.15-.626-.192-.944-.038-.282-.179-.355-.445-.315-.405.061-.814.1-1.22.156-1.284.183-2.567.38-3.853.55-.265.035-.314.136-.286.364a13.19,13.19,0,0,0,5.166,9.1,13.948,13.948,0,0,0,10.667,2.805A13.569,13.569,0,0,0,31.311,40.744a12.994,12.994,0,0,0-3.642-12.223q-.3-.3-.611-.6c-.2-.194-.413-.384-.607-.564.413-.422.8-.83,1.2-1.228A12.524,12.524,0,0,0,31.395,19,13.2,13.2,0,0,0,28.743,8.375c-.178-.222-.169-.356.045-.525.573-.454,1.139-.917,1.723-1.39A15.328,15.328,0,0,1,33,10.51a15.578,15.578,0,0,1,1.214,6.864,15.334,15.334,0,0,1-3.825,9.577.441.441,0,0,0-.011.687,15.938,15.938,0,0,1-7.008,25.487,15.375,15.375,0,0,1-6.268,1.017c-6.223-.5-11-3.311-14.025-8.747a15.167,15.167,0,0,1-1.792-5.888c-.075-.731-.234-1.454-.348-2.182a2.015,2.015,0,0,1,0-.341c2.625-.387,5.2-.772,7.783-1.143.988-.142,1.98-.259,2.972-.367a.358.358,0,0,1,.281.2c.148.9.328,1.8.391,2.7a5.413,5.413,0,0,0,10.651.672,5.173,5.173,0,0,0-3.789-6.06,9.967,9.967,0,0,0-1.368-.251c-.46-.043-.927-.009-1.43-.009V21.849c.41,0,.827-.019,1.242,0A5.331,5.331,0,0,0,23,17.755,5.314,5.314,0,0,0,17.887,11.4a5.426,5.426,0,0,0-5.46,4.3c-.2.97-.368,1.947-.552,2.921-.093.493-.106.479-.616.417-.759-.091-1.522-.151-2.284-.216C7.667,18.713,6.359,18.6,5.05,18.5c-1.457-.113-2.916-.214-4.452-.326" transform="translate(-0.401 -0.339)" fill="#f3f9ff"/>
          <path id="Path_874536" data-name="Path 874536" d="M.6,18.174c.182-.919.344-1.772.522-2.621.173-.825.365-1.646.544-2.469A15.348,15.348,0,0,1,7.151,4.308,16.292,16.292,0,0,1,17.919.5,16.267,16.267,0,0,1,28.095,4.121c.062.05.117.108.184.17l-1.64,1.883c-4.463-3.248-9.273-4.09-14.378-1.956S4.515,10.382,3.788,15.772c.466.051.957.117,1.45.155,1.364.106,2.73.191,4.093.307.294.025.3-.131.345-.322a10.9,10.9,0,0,1,1.388-3.582A8.1,8.1,0,0,1,20.143,9.2a7.751,7.751,0,0,1-.719,15.055c-.118.023-.234.057-.358.088v5.95a8.12,8.12,0,0,1,4.9,2.815,7.735,7.735,0,0,1-3.91,12.363A8.063,8.063,0,0,1,9.928,39.66c-.068-.314-.15-.626-.192-.944-.038-.282-.179-.355-.445-.315-.405.061-.814.1-1.22.156-1.284.183-2.567.38-3.853.55-.265.035-.314.136-.286.364a13.19,13.19,0,0,0,5.166,9.1,13.948,13.948,0,0,0,10.667,2.805A13.569,13.569,0,0,0,31.311,40.744a12.994,12.994,0,0,0-3.642-12.223q-.3-.3-.611-.6c-.2-.194-.413-.384-.607-.564.413-.422.8-.83,1.2-1.228A12.524,12.524,0,0,0,31.395,19,13.2,13.2,0,0,0,28.743,8.375c-.178-.222-.169-.356.045-.525.573-.454,1.139-.917,1.723-1.39A15.328,15.328,0,0,1,33,10.51a15.578,15.578,0,0,1,1.214,6.864,15.334,15.334,0,0,1-3.825,9.577.441.441,0,0,0-.011.687,15.938,15.938,0,0,1-7.008,25.487,15.375,15.375,0,0,1-6.268,1.017c-6.223-.5-11-3.311-14.025-8.747a15.167,15.167,0,0,1-1.792-5.888c-.075-.731-.234-1.454-.348-2.182a2.015,2.015,0,0,1,0-.341c2.625-.387,5.2-.772,7.783-1.143.988-.142,1.98-.259,2.972-.367a.358.358,0,0,1,.281.2c.148.9.328,1.8.391,2.7a5.413,5.413,0,0,0,10.651.672,5.173,5.173,0,0,0-3.789-6.06,9.967,9.967,0,0,0-1.368-.251c-.46-.043-.927-.009-1.43-.009V21.849c.41,0,.827-.019,1.242,0A5.331,5.331,0,0,0,23,17.755,5.314,5.314,0,0,0,17.887,11.4a5.426,5.426,0,0,0-5.46,4.3c-.2.97-.368,1.947-.552,2.921-.093.493-.106.479-.616.417-.759-.091-1.522-.151-2.284-.216C7.667,18.713,6.359,18.6,5.05,18.5,3.592,18.387,2.134,18.286.6,18.174Z" transform="translate(-0.401 -0.339)" fill="#f3f9ff"/>
        </g>
      </g>
    </g>
  </g>
</svg>
