<svg xmlns="http://www.w3.org/2000/svg" xmlns:xlink="http://www.w3.org/1999/xlink" width="116" height="116" viewBox="0 0 116 116">
  <defs>
    <clipPath id="clip-path">
      <rect id="Rectangle_401286" data-name="Rectangle 401286" width="56.126" height="52.007" fill="#fff"/>
    </clipPath>
  </defs>
  <g id="Group_1100531" data-name="Group 1100531" transform="translate(-745 -4924)">
    <circle id="Ellipse_11493" data-name="Ellipse 11493" cx="58" cy="58" r="58" transform="translate(745 4924)" fill="#af2323"/>
    <g id="Group_1098941" data-name="Group 1098941" transform="translate(758 4937)">
      <g id="Group_1073526" data-name="Group 1073526" transform="translate(0 0)">
        <g id="Group_1072785" data-name="Group 1072785" transform="translate(0 0)">
          <path id="Path_608385" data-name="Path 608385" d="M45.092,0A45.092,45.092,0,1,1,0,45.092,45.092,45.092,0,0,1,45.092,0Z" transform="translate(0 0)" fill="none"/>
        </g>
        <g id="Group_1073383" data-name="Group 1073383" transform="translate(0 0)">
          <path id="Path_608385-2" data-name="Path 608385" d="M45.092,0A45.092,45.092,0,1,1,0,45.092,45.092,45.092,0,0,1,45.092,0Z" transform="translate(0 0)" fill="#12405a"/>
        </g>
      </g>
    </g>
    <g id="Group_1098942" data-name="Group 1098942" transform="translate(366.473 -1087.213)">
      <path id="Path_873216" data-name="Path 873216" d="M0,0H57.126V57.127H0Z" transform="translate(408.527 6040.213)" fill="none"/>
      <g id="Group_1100363" data-name="Group 1100363" transform="translate(409.527 6042.588)">
        <g id="Group_1099694" data-name="Group 1099694" clip-path="url(#clip-path)">
          <path id="Path_873890" data-name="Path 873890" d="M50.595,31.837a2.44,2.44,0,0,1,3.071,1.879c.413,1.783.933,3.541,1.422,5.306a5.471,5.471,0,0,1,.3,2.463,4.574,4.574,0,0,0,.243,2.095c.152.556.3,1.113.451,1.669a.822.822,0,0,1-.561,1.081c-.887.269-1.785.506-2.681.745-.989.263-1.983.507-2.971.772-1.345.361-2.686.733-4.028,1.1a.907.907,0,0,1-1.127-.638c-.257-.928-.512-1.857-.751-2.79a.593.593,0,0,0-.483-.51,20.319,20.319,0,0,1-2.2-.644,3.693,3.693,0,0,1-2.317-2.44c-.084-.262-.17-.525-.277-.778a.293.293,0,0,0-.21-.156c-1.439,0-2.879,0-4.318.01h-.265v4.119c.308,0,.607,0,.906,0,1.422,0,2.85-.071,4.264.037a3.8,3.8,0,0,1,3.471,2.379,2.7,2.7,0,0,1,.2.926c.03.844.023,1.689.019,2.534a.891.891,0,0,1-1.024,1.008Q33.94,52,26.155,52q-8.613,0-17.225,0c-.683,0-1.076-.285-1.1-.961A19.4,19.4,0,0,1,7.9,48.173a3.27,3.27,0,0,1,1.9-2.516,4.986,4.986,0,0,1,2.441-.55c1.481,0,2.961,0,4.457,0V41h-.7q-5.5,0-10.992,0A4.848,4.848,0,0,1,1.229,39.42,5,5,0,0,1,.006,35.895q.007-5.108,0-10.216,0-7.293-.01-14.586a4.863,4.863,0,0,1,1.658-3.91,4.8,4.8,0,0,1,3.11-1.146c.447-.01.9,0,1.38,0V5.75q0-1.306,0-2.612a.863.863,0,0,1,.929-1c.775-.026,1.551-.011,2.327-.013h.168c0-.2,0-.384,0-.57.005-.224,0-.449.03-.671a.891.891,0,0,1,.959-.884q1.758,0,3.516.063C14.99.1,15.9.181,16.812.242c.12.008.239.028.358.046A56.039,56.039,0,0,1,23.229,1.55a12.255,12.255,0,0,1,1.238.358A2.686,2.686,0,0,0,26.2,1.9c1.435-.388,2.873-.771,4.323-1.094a22.949,22.949,0,0,1,3.2-.536C35.61.121,37.5.083,39.383.006a5.657,5.657,0,0,1,.8.021.834.834,0,0,1,.785.813c.021.419,0,.841,0,1.278.125.008.191.015.257.015.681,0,1.362,0,2.043,0a2.236,2.236,0,0,1,.538.051.824.824,0,0,1,.62.817q0,1.358,0,2.716v.318c.123,0,.232-.005.34,0a14.565,14.565,0,0,1,2.107.141,4.465,4.465,0,0,1,3.3,2.709,5.49,5.49,0,0,1,.4,2.273q.015,8.069.005,16.139c0,1.483-.01,2.965-.015,4.448a.373.373,0,0,0,.03.092M6.137,7.885c-.644,0-1.265-.027-1.882.012a2.311,2.311,0,0,0-.906.253,2.75,2.75,0,0,0-1.541,2.588q-.011,12.725,0,25.45a4.183,4.183,0,0,0,.106.893,2.821,2.821,0,0,0,2.606,2.075q16.567-.034,33.134-.014h.294c-.525-2.1.292-3.494,2.257-4.371a2.416,2.416,0,0,0-.339-.083c-.137-.01-.276,0-.413,0L4.64,34.684a5.385,5.385,0,0,1-.671-.026.776.776,0,0,1-.769-.814c-.03-.481-.041-.965-.041-1.447q0-10.333,0-20.665c0-.379.012-.759.035-1.137A1.45,1.45,0,0,1,4.738,9.139c.463,0,.926,0,1.4,0Zm12.231,2.851c-.793-.1-1.617-.223-2.446-.3-.6-.054-1.206-.03-1.808-.061a1.117,1.117,0,0,1-1.079-.625.884.884,0,0,1,.957-1.207,27.876,27.876,0,0,1,5.429.622.589.589,0,0,0,.412-.112c.423-.295.816-.634,1.246-.918a8.223,8.223,0,0,1,3.126-1.156c.169-.031.2-.095.2-.253Q24.4,5.32,24.418,3.91c0-.149-.037-.214-.182-.25-.359-.089-.711-.2-1.071-.291-1.3-.315-2.6-.654-3.912-.923a25.53,25.53,0,0,0-2.707-.387c-1.063-.1-2.132-.153-3.2-.2-.643-.028-1.288-.005-1.955-.005V25.242c1.133.082,2.247.208,3.364.231a28.419,28.419,0,0,1,3.949.44A23.7,23.7,0,0,1,23,27.007c.458.166.91.348,1.391.533V23.03l-.1-.029a16.66,16.66,0,0,1-2.24-.67,8.422,8.422,0,0,1-3.468-2.893.606.606,0,0,0-.358-.242q-1.405-.193-2.816-.342c-.505-.053-1.018-.035-1.52-.1a1.384,1.384,0,0,1-.663-.3.741.741,0,0,1-.209-.873A.817.817,0,0,1,13.835,17q1.265.045,2.529.133c.382.027.761.1,1.153.155a.539.539,0,0,0,.01-.135,7.978,7.978,0,0,1-.322-2.191c0-.057-.121-.159-.2-.169-.383-.054-.77-.091-1.156-.122-.7-.056-1.394-.085-2.087-.16a.89.89,0,0,1-.789-.927.867.867,0,0,1,.9-.823c.834.02,1.669.071,2.5.134.365.027.725.114,1.011.161l.982-2.325m7.858-3.792c.289.062.558.117.826.178a7.824,7.824,0,0,1,3.66,1.923.44.44,0,0,0,.438.132,7.484,7.484,0,0,1,.829-.192q1.9-.215,3.8-.4a6.05,6.05,0,0,1,1.083-.015.853.853,0,0,1,.249,1.626,2.046,2.046,0,0,1-.641.177c-1.09.087-2.181.148-3.271.231-.347.026-.691.092-.987.133.261.615.529,1.2.755,1.794.19.5.166.49.691.438.736-.073,1.475-.112,2.214-.162a8.174,8.174,0,0,1,.851-.042.878.878,0,0,1,.17,1.743,3.256,3.256,0,0,1-.512.062c-.816.064-1.633.112-2.448.189-.508.048-.488.069-.55.59-.075.636-.186,1.268-.283,1.911.535-.059,1.1-.139,1.662-.177a20.951,20.951,0,0,1,2.116-.076.826.826,0,0,1,.662,1.192.994.994,0,0,1-.893.564c-.95.092-1.9.17-2.853.264-.512.051-1.023.119-1.532.194a.445.445,0,0,0-.242.164c-.233.287-.442.593-.681.875a7.206,7.206,0,0,1-2.549,1.946,16.706,16.706,0,0,1-2.076.675c-.5.15-.5.136-.5.656,0,1.207,0,2.414,0,3.621,0,.117,0,.235,0,.369.06-.014.093-.019.124-.029,1.04-.355,2.066-.759,3.122-1.051,1.01-.28,2.048-.458,3.08-.651.481-.09.975-.1,1.461-.17.085-.011.218-.1.228-.17a5.837,5.837,0,0,1,.787-2.223.89.89,0,0,0,.05-.13,2.38,2.38,0,0,0-.326,0c-1.3.195-2.607.369-3.9.6-.637.114-1.252.347-1.882.5a1.02,1.02,0,0,1-.552-.021.882.882,0,0,1,.105-1.712A26.167,26.167,0,0,1,33,21.546c1.276-.132,2.554-.234,3.831-.353a.752.752,0,0,0,.3-.071,6.653,6.653,0,0,1,1.852-.7c.21-.048.266-.162.264-.368-.011-1.5-.013-3-.015-4.5q-.012-6.75-.017-13.5c0-.219-.071-.255-.269-.246-1.283.055-2.571.047-3.848.16-1.43.127-2.857.322-4.273.562-.954.162-1.886.45-2.826.691-.591.152-1.177.32-1.772.482ZM4.953,32.919H39.565a3.072,3.072,0,0,1-.094-.545c0-.246-.122-.33-.337-.364a5.488,5.488,0,0,1-3.258-1.748.6.6,0,0,0-.475-.206c-2.035,0-4.069,0-6.1,0-.46,0-.382-.092-.544.393A2.074,2.074,0,0,1,26.832,32c-.936.061-1.877.046-2.816.037a2.208,2.208,0,0,1-1.2-.349,2.424,2.424,0,0,1-1.029-1.465.2.2,0,0,0-.229-.176c-1.543.006-3.086,0-4.63.005q-4.823,0-9.647,0a1.693,1.693,0,0,1-.723-.135.87.87,0,0,1-.413-.882q.006-8.884,0-17.768v-.317h-1.2Zm46.071.681a.488.488,0,0,0,.006.1c.179.691.366,1.379.534,2.072a.929.929,0,0,1,0,.5.875.875,0,0,1-1.7-.039c-.139-.443-.247-.9-.371-1.343-.133-.479-.242-.967-.41-1.434a.554.554,0,0,0-.78-.276c-.287.117-.126.37-.131.566a1.123,1.123,0,0,0,.073.3c.149.557.312,1.11.443,1.671a.861.861,0,0,1-.711,1.072.9.9,0,0,1-.989-.642c-.106-.363-.2-.729-.3-1.094-.137-.5-.255-1-.418-1.49a.685.685,0,0,0-.9-.389.655.655,0,0,0-.418.81c.194.731.361,1.472.61,2.185a.921.921,0,0,1-.981,1.141.91.91,0,0,1-.765-.771c-.21-.754-.4-1.512-.607-2.267q-.621-2.3-1.245-4.607c-.331-1.22-.661-2.44-1.008-3.656a.61.61,0,0,0-.275-.308.665.665,0,0,0-.794.08.631.631,0,0,0-.185.727q.669,2.491,1.339,4.982.57,2.117,1.142,4.233c.293,1.088.574,2.179.88,3.263a.838.838,0,0,1-.29.9.782.782,0,0,1-.907.16,1.1,1.1,0,0,1-.582-.834c-.213-.8-.417-1.6-.627-2.395a2.448,2.448,0,0,0-.1-.257,1.4,1.4,0,0,0-.962,1.367,3.853,3.853,0,0,0,.2,1.057c.27.834.583,1.655.863,2.486a1.83,1.83,0,0,0,1.063,1.195,14.787,14.787,0,0,0,1.5.471,3.772,3.772,0,0,1,1.841.81c.136.138.251.188.423.089a.809.809,0,0,1,.2-.064L50.394,42.7c.956-.255,1.91-.514,2.868-.763a.42.42,0,0,0,.346-.384,3.122,3.122,0,0,0-.05-1.381q-.823-3.065-1.641-6.131c-.13-.489-.39-.624-.893-.447M40.956,50.209c0-.615.007-1.2,0-1.783a.906.906,0,0,0-.108-.392,1.838,1.838,0,0,0-1.245-.97,6.089,6.089,0,0,0-1.327-.15q-12.709-.011-25.419,0a13.931,13.931,0,0,0-1.419.051,2.337,2.337,0,0,0-1.47.734,1.584,1.584,0,0,0-.294,1.241c0,.419,0,.839,0,1.27Zm-15.64-41.5A6.269,6.269,0,1,0,31.592,15a6.241,6.241,0,0,0-6.277-6.292M18.568,41.012a.4.4,0,0,0-.035.106c0,1.275-.008,2.551,0,3.826,0,.054.1.15.165.155.24.018.482.007.723.007H32V41.012ZM9.574,3.956c-.515,0-.988,0-1.461,0-.158,0-.15.1-.15.21,0,.534,0,1.069,0,1.6q0,11.068,0,22.137c0,.38,0,.381.368.381H20.947a.157.157,0,0,0-.058-.037c-.689-.176-1.372-.38-2.069-.516-.64-.125-1.293-.186-1.942-.256-.813-.088-1.627-.186-2.443-.228-1.213-.062-2.429-.077-3.643-.117-.873-.029-1.2-.361-1.217-1.219,0-.052,0-.1,0-.155q0-10.654,0-21.309V3.956M47.429,31.564c.374-.083.729-.183,1.09-.234.216-.03.279-.1.251-.31a3.678,3.678,0,0,1-.015-.49q0-9.9,0-19.806a2.809,2.809,0,0,0-.165-1.062A2.56,2.56,0,0,0,46.14,7.887c-.564-.006-1.129,0-1.693,0V9.139c.5,0,.993-.006,1.482,0a1.485,1.485,0,0,1,1.474,1.3,4.1,4.1,0,0,1,.024.567q0,9.969,0,19.937v.623m-4.8-10.724V3.97H41.006v.4Q41,11.781,41,19.19c0,.3.018.6-.006.9a.255.255,0,0,0,.22.311c.467.139.932.286,1.413.435m-3.794,9.253c-.085-.334-.163-.64-.242-.945-.216-.84-.478-1.671-.64-2.52a2.424,2.424,0,0,1,1.926-2.763,2.471,2.471,0,0,1,2.785,1.613c.2.621.353,1.257.526,1.886.105.384.207.77.317,1.177a4.113,4.113,0,0,0-4.873-6.188,4.065,4.065,0,0,0-2.663,4.257c.164,1.647,1.6,3.356,2.864,3.483m5.6-19.142V11.2q0,5.391,0,10.781a.712.712,0,0,0,.12.349c.307.5.625.984.94,1.475.042.066.085.13.157.241v-13.1ZM54.166,44.9l-.353-1.294c-.853.237-1.677.474-2.5.694-1.685.447-3.373.884-5.059,1.328a.9.9,0,0,0-.262.106c-.049.032-.109.115-.1.159.1.388.207.771.309,1.14L54.166,44.9m-8.5-16.556a1.5,1.5,0,0,0-.144.208,6.141,6.141,0,0,1-1.368,1.98c-.033.033-.071.092-.063.13.063.293.13.586.214.874a.2.2,0,0,0,.17.094c.394-.105.785-.226,1.192-.346Zm-11.116-.054c-.077-.286-.136-.536-.215-.778a.2.2,0,0,0-.164-.1c-.351.032-.7.066-1.049.125q-1.357.232-2.709.49a6.216,6.216,0,0,0-.7.22l.014.044ZM23.532,29.1c0,.263,0,.451,0,.64a.466.466,0,0,0,.447.5.6.6,0,0,0,.077,0c.826,0,1.652,0,2.479,0,.337,0,.476-.1.5-.363.023-.235,0-.473,0-.771a8.913,8.913,0,0,0-.91.454,1.368,1.368,0,0,1-1.673,0,7.358,7.358,0,0,0-.928-.461" transform="translate(0 0)" fill="#fff"/>
          <path id="Path_873891" data-name="Path 873891" d="M63.7,101.876c1.154.133,2.308.263,3.461.4a26.017,26.017,0,0,1,4.483.945.878.878,0,0,1,.589,1.243.905.905,0,0,1-1.061.471,15.933,15.933,0,0,0-3.055-.719c-.978-.147-1.959-.281-2.943-.392-.547-.061-1.1-.069-1.651-.087a1,1,0,0,1-1.008-1.011.822.822,0,0,1,.817-.8,3.5,3.5,0,0,1,.362,0l.005-.05" transform="translate(-49.543 -80.73)" fill="#fff"/>
          <path id="Path_873892" data-name="Path 873892" d="M63.763,20.832a30.727,30.727,0,0,1,4.979.52c.96.2,1.913.425,2.867.646a.9.9,0,0,1,.694,1.075.851.851,0,0,1-1.07.641c-.623-.128-1.236-.3-1.861-.423-.767-.146-1.538-.284-2.313-.369-1.214-.133-2.434-.214-3.65-.328a.88.88,0,0,1-.033-1.761c.128-.012.258,0,.387,0" transform="translate(-49.543 -16.505)" fill="#fff"/>
          <path id="Path_873893" data-name="Path 873893" d="M142.582,20.707a4.19,4.19,0,0,1,.6.105.836.836,0,0,1,.578.782.825.825,0,0,1-.515.8,2.362,2.362,0,0,1-.675.146c-.61.043-1.225.031-1.832.095a31.706,31.706,0,0,0-4.254.654c-.468.115-.937.224-1.408.324a.848.848,0,0,1-.931-.284.88.88,0,0,1,.528-1.426c1.131-.257,2.26-.543,3.4-.719,1.232-.19,2.481-.269,3.723-.393.257-.026.516-.038.774-.056l.005-.025" transform="translate(-106.145 -16.409)" fill="#fff"/>
          <path id="Path_873894" data-name="Path 873894" d="M106.046,55.931c0-.939-.012-1.879,0-2.818a1.326,1.326,0,0,1,1.1-1.367,1.4,1.4,0,0,1,1.055.242q1.683.958,3.359,1.929c.515.3,1.034.586,1.537.9a1.284,1.284,0,0,1,.657,1.331,1.462,1.462,0,0,1-.85,1.07l-2.956,1.7c-.62.356-1.244.7-1.86,1.065a1.344,1.344,0,0,1-1.906-.584,2.143,2.143,0,0,1-.141-.751c-.016-.9-.006-1.81-.006-2.715h.005m1.8-2.125v4.305l3.748-2.162-3.748-2.144" transform="translate(-84.028 -40.981)" fill="#fff"/>
        </g>
      </g>
    </g>
  </g>
</svg>
