<svg xmlns="http://www.w3.org/2000/svg" xmlns:xlink="http://www.w3.org/1999/xlink" width="116" height="116" viewBox="0 0 116 116">
  <defs>
    <clipPath id="clip-path">
      <rect id="Rectangle_401285" data-name="Rectangle 401285" width="57.126" height="40.036" fill="#fff"/>
    </clipPath>
  </defs>
  <g id="Group_1100531" data-name="Group 1100531" transform="translate(-324 -4924)">
    <circle id="Ellipse_6018" data-name="Ellipse 6018" cx="58" cy="58" r="58" transform="translate(324 4924)" fill="#af2323"/>
    <g id="Group_1074386" data-name="Group 1074386" transform="translate(337 4937)">
      <g id="Group_1073526" data-name="Group 1073526" transform="translate(0 0)">
        <g id="Group_1072785" data-name="Group 1072785" transform="translate(0 0)">
          <path id="Path_608385" data-name="Path 608385" d="M45.092,0A45.092,45.092,0,1,1,0,45.092,45.092,45.092,0,0,1,45.092,0Z" transform="translate(0 0)" fill="none"/>
        </g>
        <g id="Group_1073383" data-name="Group 1073383" transform="translate(0 0)">
          <path id="Path_608385-2" data-name="Path 608385" d="M45.092,0A45.092,45.092,0,1,1,0,45.092,45.092,45.092,0,0,1,45.092,0Z" transform="translate(0 0)" fill="#12405a"/>
        </g>
      </g>
    </g>
    <g id="Group_1098939" data-name="Group 1098939" transform="translate(-54.527 -1087.213)">
      <path id="Path_873216" data-name="Path 873216" d="M0,0H57.126V57.127H0Z" transform="translate(408.527 6040.213)" fill="none"/>
      <g id="Group_1100362" data-name="Group 1100362" transform="translate(408.527 6048.758)">
        <g id="Group_1099692" data-name="Group 1099692" clip-path="url(#clip-path)">
          <path id="Path_873889" data-name="Path 873889" d="M47.526,21.648a1.091,1.091,0,0,0-.027.306,4.108,4.108,0,0,1-.527,3.061,2.9,2.9,0,0,1-3.658,1.207.515.515,0,0,0-.1-.012,3.7,3.7,0,0,1-1.457,3.459,3.407,3.407,0,0,1-3.675.52c-.025,2.645-1.325,4.056-3.962,4.284a3.19,3.19,0,0,1-1.41,3.39c-1.258.855-2.487.531-3.7-.211-.134.227-.261.443-.39.658a3.365,3.365,0,0,1-2.145,1.646,3.306,3.306,0,0,1-2.894-.8A3.853,3.853,0,0,1,22.2,36.989c-2.335.872-4.065.174-5.17-2.078a3.52,3.52,0,0,1-4.147-.053,3.633,3.633,0,0,1-1.4-3.9c-.442-.051-.856-.065-1.256-.15a3.594,3.594,0,0,1-2.365-5.313c.3-.545.585-1.092.879-1.637a.506.506,0,0,0-.018-.593c-.052.034-.117.069-.174.114a2.557,2.557,0,0,1-2.476.448q-2.1-.659-4.189-1.358A2.606,2.606,0,0,1,.008,20.128a3.157,3.157,0,0,1,.2-1.216c.46-1.482.951-2.954,1.429-4.43.415-1.282.824-2.567,1.24-3.849Q4.121,6.809,5.366,2.988c.118-.362.232-.728.38-1.078A2.6,2.6,0,0,1,8.929.39q2.228.679,4.433,1.431a2.473,2.473,0,0,1,1.583,1.648c.2.581.2.62.807.564,1-.091,1.99-.226,2.982-.366.924-.131,1.843-.295,2.764-.44a7.387,7.387,0,0,1,2.4.175,9.747,9.747,0,0,1,3.372,1.311.343.343,0,0,0,.412.016,9.79,9.79,0,0,1,2.948-1.234A8.491,8.491,0,0,1,34.1,3.4a19.637,19.637,0,0,1,3.489,1.1c.774.3,1.551.6,2.344.847a3.585,3.585,0,0,0,1.661.01c-.043-.214-.076-.412-.124-.606a2.574,2.574,0,0,1,1.486-2.934c.58-.259,1.187-.459,1.784-.68C45.621.8,46.513.5,47.389.155a2.623,2.623,0,0,1,3.222,1.381c.315.76.595,1.534.883,2.3q1.467,3.92,2.928,7.842c.833,2.232,1.674,4.462,2.5,6.7a2.592,2.592,0,0,1-1.083,3.31,7.954,7.954,0,0,1-1.169.5c-1.185.441-2.378.861-3.561,1.309a2.653,2.653,0,0,1-3.2-1.4,5.325,5.325,0,0,0-.269-.467l-.11.022m-31.1,2.317a3.581,3.581,0,0,1,3.119.589,3.8,3.8,0,0,1,1.506,2.831,3.644,3.644,0,0,1,3.354.741,3.879,3.879,0,0,1,1.316,3.189h1.8c-.215-.114-.491-.243-.751-.4a.747.747,0,0,1-.3-1.012.754.754,0,0,1,1.016-.3c.077.035.151.077.226.117q2.724,1.445,5.448,2.888a2.228,2.228,0,0,0,3.367-2.231,2.515,2.515,0,0,0-1.4-1.744c-1.6-.832-3.184-1.682-4.772-2.531a1.97,1.97,0,0,1-.473-.338.632.632,0,0,1-.1-.775.718.718,0,0,1,.788-.388,1.993,1.993,0,0,1,.475.178q2.52,1.34,5.034,2.69c.771.413,1.532.847,2.315,1.236a2.237,2.237,0,1,0,2-4q-3.107-1.674-6.212-3.352c-.291-.157-.594-.3-.867-.483a.706.706,0,0,1-.077-1.2.819.819,0,0,1,.953-.006q3.869,2.086,7.738,4.172a19.423,19.423,0,0,0,1.909.963,1.422,1.422,0,0,0,1.942-.7,2.817,2.817,0,0,0-.328-3.011,10.511,10.511,0,0,0-1.488-1.27,45.109,45.109,0,0,0-5.387-2.991c-1.364-.689-2.708-1.415-4.057-2.133a2.984,2.984,0,0,0-1.282-.362,7.179,7.179,0,0,0-2.7.455,45.848,45.848,0,0,1-4.391,1.473,6.872,6.872,0,0,1-2.91.1,6.354,6.354,0,0,1-3.754-2.508.868.868,0,0,1-.075-1.123A11.8,11.8,0,0,1,20.4,11.4c.828-.9,1.678-1.784,2.552-2.639.99-.968,2.016-1.9,3.028-2.844a1.253,1.253,0,0,1,.176-.114c-.085-.064-.116-.093-.152-.113-.081-.046-.165-.087-.248-.13a8.56,8.56,0,0,0-5.4-.659c-.947.151-1.889.332-2.832.508a7.574,7.574,0,0,1-2.484.125c-.18-.026-.265.053-.314.216-.113.373-.234.744-.354,1.115q-1.025,3.185-2.051,6.37c-.6,1.84-1.189,3.68-1.8,5.513a10.494,10.494,0,0,0-.412,2.657c0,.027.025.057.042.093a3.476,3.476,0,0,1,3.9-.849,3.785,3.785,0,0,1,2.373,3.315M47.19,20.25a.3.3,0,0,0,0-.088c-.477-1.252-.961-2.5-1.431-3.756q-1.467-3.921-2.921-7.846c-.192-.516-.414-1.025-.563-1.553-.062-.22-.124-.264-.317-.211-.065.018-.137.012-.2.033a4.084,4.084,0,0,1-2.6-.147c-.879-.282-1.732-.65-2.592-.989a10.364,10.364,0,0,0-2.979-.84,7.845,7.845,0,0,0-3.735.44A13.53,13.53,0,0,0,25.74,8.129Q24.2,9.614,22.69,11.14c-.532.537-1.04,1.1-1.536,1.67-.293.337-.275.373,0,.682a4.5,4.5,0,0,0,4.777,1.281c.854-.208,1.683-.524,2.516-.811a22.86,22.86,0,0,1,3.472-1.071,4.854,4.854,0,0,1,3.547.629c.647.4,1.331.748,2.009,1.1,1.891.984,3.8,1.929,5.674,2.947a12,12,0,0,1,3.542,2.676c.165.194.331.081.5.005m8.477-.824c-.1-.3-.186-.608-.3-.906q-1.225-3.291-2.457-6.579Q51.253,7.482,49.6,3.022a6.926,6.926,0,0,0-.463-1.043,1.044,1.044,0,0,0-1.206-.424c-.338.112-.674.233-1.008.356-1.082.4-2.166.8-3.243,1.212a1.116,1.116,0,0,0-.717,1.438c.04.147.09.292.144.435Q44.02,7.45,44.94,9.9q1.175,3.146,2.346,6.294.932,2.5,1.86,5.008a1.181,1.181,0,0,0,1,.9,2.055,2.055,0,0,0,.838-.148c1.3-.469,2.595-.959,3.89-1.445a1.15,1.15,0,0,0,.795-1.088m-54.188.514.068.014a.875.875,0,0,0,.368.85,1.948,1.948,0,0,0,.534.283q2.019.664,4.044,1.306a1.165,1.165,0,0,0,1.513-.7q.647-2.008,1.3-4.015,1.058-3.252,2.119-6.5.738-2.273,1.466-4.549c.214-.67.444-1.337.622-2.017A1.139,1.139,0,0,0,12.63,3.13c-1.182-.369-2.355-.767-3.537-1.138a2.938,2.938,0,0,0-1.01-.21,1.169,1.169,0,0,0-1.053.931Q6.249,5.187,5.448,7.655c-.554,1.71-1.121,3.415-1.676,5.124q-.955,2.939-1.9,5.881c-.136.424-.263.852-.394,1.278M15,34.033a5.332,5.332,0,0,0,.769-.144A2.019,2.019,0,0,0,16.9,32.846c.346-.652.7-1.3,1.05-1.95.452-.845.926-1.68,1.341-2.544a2.08,2.08,0,0,0-.411-2.419,2.14,2.14,0,0,0-3.336.5c-.292.556-.6,1.106-.892,1.659-.528.988-1.079,1.964-1.575,2.968A2.068,2.068,0,0,0,15,34.033M8.931,27.3a3.427,3.427,0,0,0,.134.843,1.9,1.9,0,0,0,1.825,1.225,1.93,1.93,0,0,0,1.892-.963c.683-1.192,1.3-2.42,1.945-3.636a1.669,1.669,0,0,0-.032-1.608,2.144,2.144,0,0,0-3.273-.769,2.853,2.853,0,0,0-.612.8c-.523.933-1.012,1.884-1.526,2.821A2.191,2.191,0,0,0,8.931,27.3m11.624,8.583a2.147,2.147,0,0,0,1.764-1.05c.244-.4.447-.819.666-1.232.346-.652.734-1.286,1.022-1.963a2.061,2.061,0,0,0-1.019-2.676,2.1,2.1,0,0,0-2.734.825c-.564.988-1.1,1.994-1.611,3.008a1.887,1.887,0,0,0-.235,1.275,2.141,2.141,0,0,0,2.146,1.813m6.108-3.16a2.559,2.559,0,0,0-2.151,1.209c-.261.427-.482.877-.714,1.321a1.8,1.8,0,0,0-.214,1.132A2.569,2.569,0,0,0,24.63,38.1a1.654,1.654,0,0,0,2.512-.289,9.5,9.5,0,0,0,1.46-2.923,1.155,1.155,0,0,0-.055-.943,2.674,2.674,0,0,0-1.885-1.224m2.287-.622a2.988,2.988,0,0,1,1.2,2.662,7.751,7.751,0,0,1-.4,1.384c-.052.149-.041.215.091.278.23.109.462.215.687.334a1.582,1.582,0,0,0,2.129-1.289A1.865,1.865,0,0,0,31.623,33.5c-.6-.333-1.21-.654-1.818-.975-.282-.149-.571-.285-.856-.427" transform="translate(0 0)" fill="#fff"/>
        </g>
      </g>
    </g>
  </g>
</svg>
