<svg xmlns="http://www.w3.org/2000/svg" xmlns:xlink="http://www.w3.org/1999/xlink" width="107" height="107" viewBox="0 0 107 107">
  <defs>
    <clipPath id="clip-path">
      <rect id="Rectangle_401286" data-name="Rectangle 401286" width="62" height="57" transform="translate(0.185 0)" fill="#fff"/>
    </clipPath>
    <clipPath id="clip-path-2">
      <rect id="Rectangle_401614" data-name="Rectangle 401614" width="35.195" height="54" fill="#fff"/>
    </clipPath>
  </defs>
  <g id="Group_1100532" data-name="Group 1100532" transform="translate(-287 -5553.482)">
    <g id="Grupo_156312" data-name="Grupo 156312" transform="translate(-1.668 1105.046)">
      <path id="Elipse_5845" data-name="Elipse 5845" d="M53.5,0A53.5,53.5,0,1,1,0,53.5,53.5,53.5,0,0,1,53.5,0Z" transform="translate(288.668 4448.437)" fill="#0d599b"/>
    </g>
    <g id="Group_1099533" data-name="Group 1099533" transform="translate(-98.712 -463.916)">
      <path id="Path_873216" data-name="Path 873216" d="M0,0H62.184V62.185H0Z" transform="translate(408.527 6040.213)" fill="none"/>
      <g id="Group_1099695" data-name="Group 1099695" transform="translate(409.37 6043.474)">
        <g id="Group_1099694" data-name="Group 1099694" transform="translate(-0.843 -0.639)" clip-path="url(#clip-path)">
          <g id="Group_1100377" data-name="Group 1100377" transform="translate(12.461 1.35)">
            <g id="Group_1100376" data-name="Group 1100376" clip-path="url(#clip-path-2)">
              <path id="Path_874532" data-name="Path 874532" d="M3.5,16.94l5.655,1.114c.185-.942.347-1.85.544-2.751a7.8,7.8,0,0,1,5.472-6.059,7.9,7.9,0,0,1,9.4,4.28,7.124,7.124,0,0,1,.1,5.528,33.734,33.734,0,0,1-3.237,6.528A123.489,123.489,0,0,1,11.306,39.413c-1.765,2.136-3.622,4.2-5.421,6.3a1.216,1.216,0,0,0-.282.708C5.575,47.96,5.6,49.5,5.574,51.033c0,.34.085.432.421.432,2.9,0,5.8.025,8.707.022.393,0,.511.119.491.507-.031.591-.019,1.186,0,1.778.008.293-.086.405-.391.4q-5.764-.022-11.528-.02c-.284,0-.337-.1-.334-.353q.049-4.1.082-8.206a1.33,1.33,0,0,1,.372-.944Q7.765,39.9,11.74,34.8a105.573,105.573,0,0,0,7.953-11.318,28.824,28.824,0,0,0,2.665-5.638,4.824,4.824,0,0,0-2.791-5.908,5.209,5.209,0,0,0-6.928,2.6,12.33,12.33,0,0,0-.657,2.524c-.278,1.3-.515,2.611-.771,3.917a.385.385,0,0,1-.06.1L2.518,19.369c-.565-.112-1.127-.235-1.694-.332-.334-.058-.357-.251-.3-.524.34-1.617.683-3.234,1.009-4.854A15.766,15.766,0,0,1,9.747,2.518,14.7,14.7,0,0,1,18.821.607c6.735.854,11.441,4.417,13.881,10.845a13.158,13.158,0,0,1,.752,5.911A21.966,21.966,0,0,1,31.6,24.017a51.693,51.693,0,0,1-4.657,8.335C24.51,36.01,21.8,39.46,19.065,42.888c-.057.071-.107.146-.206.282H35.371V54.165H23.111v-2.61h9.616V45.807H13.54c.143-.208.222-.336.313-.453,2.93-3.772,5.91-7.505,8.777-11.325a57.5,57.5,0,0,0,6.2-10.138,23.1,23.1,0,0,0,1.854-5.485A12.841,12.841,0,0,0,24.649,5.215a12.821,12.821,0,0,0-5.856-1.969A13.322,13.322,0,0,0,5.787,9.655,13.7,13.7,0,0,0,3.814,15.41c-.07.515-.209,1.02-.317,1.53" transform="translate(-0.338 -0.338)" fill="#fff"/>
              <path id="Path_874533" data-name="Path 874533" d="M3.5,16.94l5.655,1.114c.185-.942.347-1.85.544-2.751a7.8,7.8,0,0,1,5.472-6.059,7.9,7.9,0,0,1,9.4,4.28,7.124,7.124,0,0,1,.1,5.528,33.734,33.734,0,0,1-3.237,6.528A123.489,123.489,0,0,1,11.306,39.413c-1.765,2.136-3.622,4.2-5.421,6.3a1.216,1.216,0,0,0-.282.708C5.575,47.96,5.6,49.5,5.574,51.033c0,.34.085.432.421.432,2.9,0,5.8.025,8.707.022.393,0,.511.119.491.507-.031.591-.019,1.186,0,1.778.008.293-.086.405-.391.4q-5.764-.022-11.528-.02c-.284,0-.337-.1-.334-.353q.049-4.1.082-8.206a1.33,1.33,0,0,1,.372-.944Q7.765,39.9,11.74,34.8a105.573,105.573,0,0,0,7.953-11.318,28.824,28.824,0,0,0,2.665-5.638,4.824,4.824,0,0,0-2.791-5.908,5.209,5.209,0,0,0-6.928,2.6,12.33,12.33,0,0,0-.657,2.524c-.278,1.3-.515,2.611-.771,3.917a.385.385,0,0,1-.06.1L2.518,19.369c-.565-.112-1.127-.235-1.694-.332-.334-.058-.357-.251-.3-.524.34-1.617.683-3.234,1.009-4.854A15.766,15.766,0,0,1,9.747,2.518,14.7,14.7,0,0,1,18.821.607c6.735.854,11.441,4.417,13.881,10.845a13.158,13.158,0,0,1,.752,5.911A21.966,21.966,0,0,1,31.6,24.017a51.693,51.693,0,0,1-4.657,8.335C24.51,36.01,21.8,39.46,19.065,42.888c-.057.071-.107.146-.206.282H35.371V54.165H23.111v-2.61h9.616V45.807H13.54c.143-.208.222-.336.313-.453,2.93-3.772,5.91-7.505,8.777-11.325a57.5,57.5,0,0,0,6.2-10.138,23.1,23.1,0,0,0,1.854-5.485A12.841,12.841,0,0,0,24.649,5.215a12.821,12.821,0,0,0-5.856-1.969A13.322,13.322,0,0,0,5.787,9.655,13.7,13.7,0,0,0,3.814,15.41C3.744,15.925,3.6,16.43,3.5,16.94Z" transform="translate(-0.338 -0.338)" fill="#fff"/>
              <path id="Path_874534" data-name="Path 874534" d="M54.232,160.83c0-.838-.006-1.655.011-2.471,0-.066.156-.183.242-.185.774-.015,1.548-.008,2.349-.008v2.664Z" transform="translate(-36.692 -107.012)" fill="#fff"/>
            </g>
          </g>
        </g>
      </g>
    </g>
  </g>
</svg>
